<mxfile host="Electron" agent="Mozilla/5.0 (Windows NT 10.0; Win64; x64) AppleWebKit/537.36 (KHTML, like Gecko) draw.io/24.7.8 Chrome/128.0.6613.36 Electron/32.0.1 Safari/537.36" version="24.7.8">
  <diagram name="Page-1" id="CyCnKs9nj6-HmPmQI_-i">
    <mxGraphModel dx="1750" dy="1223" grid="1" gridSize="10" guides="1" tooltips="1" connect="1" arrows="1" fold="1" page="1" pageScale="1" pageWidth="850" pageHeight="1100" math="0" shadow="0">
      <root>
        <mxCell id="0" />
        <mxCell id="1" parent="0" />
        <mxCell id="fCbOtdPG3xvEK2G1sM7g-32" value="" style="rounded=0;whiteSpace=wrap;html=1;fillColor=#f5f5f5;fontColor=#333333;strokeColor=#666666;" parent="1" vertex="1">
          <mxGeometry x="10" y="200" width="780" height="320" as="geometry" />
        </mxCell>
        <mxCell id="fCbOtdPG3xvEK2G1sM7g-8" value="" style="group" parent="1" vertex="1" connectable="0">
          <mxGeometry x="40" y="270" width="101" height="130" as="geometry" />
        </mxCell>
        <mxCell id="fCbOtdPG3xvEK2G1sM7g-2" value="" style="sketch=0;html=1;aspect=fixed;strokeColor=none;shadow=0;fillColor=#3B8DF1;verticalAlign=top;labelPosition=center;verticalLabelPosition=bottom;shape=mxgraph.gcp2.phone_android" parent="fCbOtdPG3xvEK2G1sM7g-8" vertex="1">
          <mxGeometry x="22" width="56" height="100" as="geometry" />
        </mxCell>
        <mxCell id="fCbOtdPG3xvEK2G1sM7g-3" value="&lt;div&gt;(Driver Phone)&lt;/div&gt;" style="text;html=1;align=center;verticalAlign=middle;whiteSpace=wrap;rounded=0;fontStyle=1" parent="fCbOtdPG3xvEK2G1sM7g-8" vertex="1">
          <mxGeometry y="100" width="100" height="30" as="geometry" />
        </mxCell>
        <mxCell id="fCbOtdPG3xvEK2G1sM7g-6" value="" style="shape=image;verticalLabelPosition=bottom;labelBackgroundColor=default;verticalAlign=top;aspect=fixed;imageAspect=0;image=data:image/png,iVBORw0KGgoAAAANSUhEUgAAATwAAAFWCAYAAAD0aiE6AAAAAXNSR0IArs4c6QAAAARnQU1BAACxjwv8YQUAAAAJcEhZcwAAEnQAABJ0Ad5mH3gAAH7NSURBVHhe7b0FoCVnff7/zBw/1+/dvevuEneHJAQIkAQJ1GiB/iq0VCgV2iKFUvlDhVIKFIpLEiBCIEoS4rrZ2O5m3V2u29H5f5/3nTlnzrmyV865dt7P7txXZ87IO898X5l3LEeAwWAwVAC26xoMBsO0xwiewWCoGIzgGQyGisEInsFgqBiM4BkMhorBCJ7BYKgYjOAZDIaKwQiewWCoGIzgGQyGisEInsFgqBgq8tUy8zadwdAfy7Jc3/RlWgveQIem4uTC8tIa4TMYtNCpO0Huh4FEbzoJ4bQSvOJDYVhdTDeebjabzfkpfOLJhb18BsN0hvdETsTce8AL27ad83v3Ti6vS3F4KjHlBc+/+97FocuF4uale0KXZZr4vTS1SLyXz3On7iU1GPrj3SV+MaNPubIooZPFdtMZJrk0Nx/vD7oefv9UYMoKXrFAEfozmYzyU9goalkJZ1yB6+zqw+FjbTh+qhsnW7pwqq0H7Z296JD4nt4kevuSSKYyktdYe4bphRYuC+FQALFoGPFYGLXVUdTVxNBUH8eMxmo0N1Vh7qx61Eg8RS5AAQwElN8TwoCEBxK8qSJ8U0rwineVYS5K0ETY6KewpdNp5b60ux0v7WvHpr3teG1/Ow6d6nHXNBgMgzGvKY4zFtZh/eI6nLNIlqV1SvSCwWDO2qMQUhDpLxa7ySx+U0LwvF30u7Tk6HoCR9E73NKLh7a04eEtrfjV6y3o7E2r/AaDYfTUxIJ445pGXLO2AdeurcfcxpgSO78A+i2/YncyMakFLydwOqCFzrXmKHhpWTq6k7hz4wnc/fIpPLz5pMpvMBjKxzXrZuCGs5vwznNnorYqjCCtPVZ9fVaf/Mm1g08m4ZuUglcsdKotThaKXTqVQkosuud2teO2F07gR08fQSqjOyQMBsP4EQrY+I1L5+B9F8zERcvqEBKLLxgK6bY/d5lswjfpBI+74+2SJ3RcUhQ6WWjJfefJo3hs6ymVx2AwTDxXrW7CBy6frSy/kIgeF0/0lPAJFLyJFr1JI3jebniCR2tOVVtdobvzpVP4ysMHsHFvh8pnMBgmH+cursUfXbMA7zxHC5+y+Abo4Jgo4ZsUgqdETntyPawUu2QyiYdfb8V/3L8fz+xsU3kNBsPk55Ll9fiLtyzENWsaEA6HdRufiB47OkTtcmMAx5sJFTzvp5XgyeJ1RFDodh/rwr/esx8/eeGYymMwGKYeN18wCx9/20IsnVWthM/r4Jgoa2/CBE+JnPboYSUUO3ETiST+97HD+Mxde0xnhMEwDWDnxqdvWoI/uGouIhERPbHyKHoTYe1NiOB5P+lVXT2rbvOBdnzqrn14ZIvpkDAYphtXr23CZ29ahHUL6gqsPX+nRrkZV8HzfoquJ3bskKDYff/po/ir23Yaq85gmMbQ2vvC+5bj/ZfOVqLHjg1P9PzV3HIxroJHkSNeFZZilxCx+/hP9+Bbjx9SaQaDYfrzoSvn4V/fswQRn+ixiltu0Rs3wePPcGH1lWJHodt1pAN/8qNdeGZHq5vLYDBUCpesaMB//8YyLJtTq4RPiZ4s5RS9cRE8JXbickyd7phI4IltLfjD723HkbaEzmQwGCqOOfURfO23V+KKVY2IRCKqmstX1Ch35RC9sgueJ3Z8/5VtdX19ffjZSyfxu996XaUZDIbKhsL2zQ+twY3nzEBVVZVu0yuT6JX1Iz5+sWM1tre3Fz985gg+9M0tRuwMBoOCWkBNoDZQI6gVaro3N62UlE3wBhI79sT+6Q936AwGg8Hgg9rw3afKK3plqdIqsZPFG3riWXYf+f42N4fBYDAMzJffvwq/eckcxGKxkg9ZKbmFVyx2qs1u4wkjdgaDYVhQK6gZ1A5l6YmWeLoyVkoqeN4OKcGThb2xj289hQ9K/dxQiahm5xIthkqCmkHtoIaoD2/5tGUslLRKy01xUW9PpNPYfrgd7/jPV8zQk2mNT4z8VQ4ngxiyaHRkgYMqiYqIG5DSxqcsFy83C6C3ZCQyJSm94m8Xt0UtktsOSgzXkFzMqP+4+P2G6QKHrPz8o2dh5dw6hINBNUB5rFXbkgmetxmOs+Pwk57ePtz035vwtBlUPI3wCpoWnjgymJtNo0n8USeJWqcXDdkEapw0AtkexJ0e1Et8vYTjIn5Rya8Fz1Fb8Bdblp6sFGR+cy4lOXpl6bQCaLNCaBOpzNi16LWCaLPDaLdj6Lai6JY8eyRPhyxaQv1FuSTF2jDBXLqiAXf9yXrEY1H9/i0nHBBGK3olETxuggvr2rTuWPf+y9t2mtfFpjxeoaK4ZTFHrLa4kxJhSyAqwtbg9GFVpgvzkUZNtg8zsl2YlekRqy6FYLYbIRG8oOQNSnpQ1rVFzviNe71o6HoF0EvJypIREZO1kBLBS4u4pa1adIn/hB3F8UA12mVpQQAbRfxO2HHJF5X0oAhhHActW/wUwWJJNUxF+Brav71vOaLRqLLyxtKJUTLBo9jRumOP7HefPIw//9F2N9Uw1aCtFBKBiCg3K1ZZGouzvXhbph2L0q1YmzqKWdkOxLKdiGRbxbpLiPRQrGi7aWvLUYWRYQ+mDw9djIvXFBmUckY5lIqvWpIiiL12HZJi/bXJsjNYjz2h+fixXYWdAZFoKyZCaItwQixGbT0apiZf/I2V+J3L56qeW1p5nuiNlDELHlfnotrtZHl1Xyve+K8vmVlPphxSeFyRahAL7exMB65Kd2NV6gAWpI+LwLWgXsQtLNc6KHmluElevyhpdMzIC+Lw6L91L0ZKoRK0tJVFq1UtAliPo4FmbA3Px9ZAHe4TMTwgVqDeba5lyudUgrOs/Orj5+DMRQ0Ii5U32va8MQmeEjtxOUCQvSlst/u1r20x89lNGaSwsMA4XPrwLrHeLk0dxOL0ERG4LsyWamu1WG8xEcCQWHm0lXTx4l/ty1dOJwZvLzRayMQmlSpxEAmxT7vssGoHPGRXY58I4LbQHLwQnIkXg7WSLms7FL5R3wKGcYTz6d36h2tVex7fux3N62djFjyvKtvT04v/efgAPnnHLjfVMDnJF44l2T6cIdXUhZmTqBcr7vJMJ9ZkWtAocSElbmIzOayeDtTNMLnJV4Oz2icC2CGidyhQj+2BWrwabMT+wCwRvkZsteOSgxV5YsRvMvOP71qGP75mAeLx0VVtRy14XI2LV5XddqgNl35uo6nKTloshOVmbhJLbX62B3WZNlyQacUbUsexJnUIzZnjqsXNEWHQ7XC89aeOwJ0etjBSAFnxzaJTRG53cCEeCM/BEyJ6XXYjjttVYgmG0JMTP8Nkg1Xbpz9xLlbNqx9V1XZUgueJndcr293Tgz/6/g785Pmjbg7DZCIkC8fEzROL7tL0KbwnsR/rk5swI3NK0myp/oVVNbCSoPjZUlWHVGw7rSrsCK/FryJLcEdoFnaIJdhrBdA3rQR/+nDzhbPxlfevQFU8PuJe2zEJXoptd729uP+VY3jfVze7qYbJgxQAqY6ekenBO5IHcH3fFqxKbUVUbL2Aa79JMZlmltxIYNHXxZ9DYdJISjV3Hp6KrMbdkWW4N9ggJ0jOjbpFRnybGMrIbR9eh7ecNQuRWEysvuFPGjpiwVNiJ27GG2As1t1NX95iBhhPKiw0yC18VqYLb0wexDmpHVgplt1sqcpGZYE7ULdyha4/avSfVHeTVgStdhR7A/V4KbQYG8TqezhYj8OW2MnqTjHCNxlQA5I/shZxsfI4IDnA6eEl/nSiNzrBk0V3VPSoauzvf2erm2qYOPSFnueksTrTjnPSx3FB6gDOTp/E7MwJRLJJJXRsyTIMjrZ30/IvgLZAA3YEm/BEcB5eDs3BlkAjXhcx1Bjhm2i+/oHVqnpL0Rvu9zBGJHhK7MT1rLuuri687Utb8OKedp3BMGFwoPC6bDcuSR3HValDuECqsHPTh5W86Y4IY82NBC18GblBUmgJzMDrwfl4LLwAD4jw7QrUolXOKd/5NcI3cZy3pA73/OlaVFfrj3wPx8obueD5rLs7XjiK3/22se4mkrAscbFHZmc68Q99O3FZ4jXMzLTAlqvKoRhG6MYOX4njG75dVhVeD63A12Jn4Fmx/A7aEfTpLIYJ4psfXI13XTB8K2/YgueJHXtmOci4u7sbN391Kx7f1uLmMIwvclGlinqhCN3NiZ24vncD5ktVlkNPdEeEm8dQIvQZpfS1WxE8G1mPb8XW4J5Qs5tkhmNNBFeuasRPPrxafQtDDUY+TY/tiAUvJdZdX28vHt18HDd92fTMjj8UOlmcDD6U2IMbE9txRvqAemk/oG5H0xlRPnhmdbNOhx3H64Em/Cq8FHdH12GzHUNSpQzrdjKUkLs+sg5vWNeMKHtsT2PljagFm9adeo0smcLtLxnLbvyx1MDhN6VO4i97nsMHezfiiuQuzMu0qWEmHDBsxK6cUO54y9ioz3bh/NQh/Hrfq/hIz5P49eR+zM16FVxzDcYTahE1idpEjRqKYVl4XhZ2VHA5eqod6z5p3qoYP3gDOVggN9QV6RN4V2IHru57DVVOCo7peZ0wcj26Ym1viazBtyMr8ERoLg4EatGmromx9sYDvn2x+R/PxeymOtV5wYUMZOUN+07xRI+Dje9+ucWI3TjBSxaVG6cp2ytCtwef7H4G7xSLgvPTZS32zRqxmygod1mEELAiOCexGZ/qfgIf7duMCzIdqOG4PjefobxQi7QmsUknr1UDcdq7hStz8SYJSCUSuHeTGYYyPliIyPLGTCe+0vUMPtb9JBalDyJl10xNoWNB5OwkXFj1YAHlQr9Kc5cphrLzrBjqsj24sfdFfLrrIfx+8jCqJUU/sgzlhppEbaJGUas83SrmtFVab0Wvs2L3kVac+9mX3VRD+bCxyEngXanDeHvvC1iTPoV6qdLyHdBJKXYsRkrE0pznXy+pBNDbqd1wVEzVKiASkyUiYZFyWbieIwUVSVkSfbL0An2yDrcTjss61VJnkSpKIAgEZQkE5NTI8Q/SKD2R6A4NR72HezBQh/sj5+Gb0SXYZssxKPEzlJONnzobS+c0DNl5MWzB09+p6MW3HzuEv/zxTjfVUB4snJHpwg3JA1KNfRUrUgfVeDuK4KTolGCRoWWWTomYJYEesfhrGoGGJlj1DUB1tYiZ7HEkDCskAhXmIoIXkSUkIicCptIpZNyWbMOR8qW2ReFLiugpNyPx8jvidxKS1tkJp7UFaJeltwuI1SjhVGJIIZwkcMAypyM9EpiNH0dWy7IUG4NNKsUIX/n4t/cuxwevmoe4CB7b8UYseF4SZ0Th0t7RgQ//YC/ufumYijeUAwtrMu349eQ+vLdvC5aldiJjxeU2mUCrjuUgK8IjZUDMfC1cNTWwqsRiC9iw0j3AnEWwFiwG5s6H1TxT0iS9vg4QAbREAJUgseyxAFruHGZeYeScdeo3ZPGKo4ipI+UNra3KdSh2x6TcHToA5/B+4MQROAHZj5SIS5dYhFy4jxTWYGgSWIGO+p7H0cAM/DSyCj+SZXtwBjrl2PUMfYZSc8M5s/DV31qMutpaNYsKF+IXvdMKHhfWi3v7+tDe1ob1//AaOvs4rY6h1PB7TKy2frrnFdyU2KzegeUHbCYMtrWlRUSoVJYUkz4RtlPHYM1dAOvcC2W5APaSJbAXLRZxq9dVVa/KWQ5Ue58InNQ0nBMn4ezfj+zOHXCeexrOaxuV1efUiiUVlP3wyjitvwkUPn4PpFeu4TPhJfh89SXYEKhHl9swYSgtNdEQNv3DGaiTshiLRgd88+K0gscGQLbf9fb04JnXj+Ft/71NF35DCbFE7Bw1MeeXOp/ABak9qHf4ZVZeqAm4WVkk2B7XIwKyez+shQthX3M17Esvgz1nDqzZcwB5iqp2OAoc29Y8kSu3uHDfvP0TAXRYrWYboDyMs4cOivV3GJlfPgBnw1NiFbbDmrNEW6TlEuFhwL7cPiuIXYGZ+NfqN+DRUDNOqMebHIOhdDgW7vmTVbhkzSzEOFeelMviGZEHFTxGc8lIoaLgcaKAbz+yDx+/6xDXcnMZxo6FRmRwWeoo/l/Pi7gkdVB9R4K357i311FEesWKY8dBLCYCdyWsxUthL1smrlhxM2bAisXzltxkQsooLT/Q+jsq1d39e5T1l91GC/ApLcRxqVpT/Motyv3Q90vSCuD1QANuj52Pe8KLsUVNLW9Er2SI4P3rTfPwwasXqQkFKHgBKad+K29IwSNqCvdkUrXf/f0tO/DdDW1G8EqGhZlI45rkAbyvbwvelNgpz31dhRw3seN1Zo9qbzdQXQtr/nzYFDdxrTPPkerqIqChERZFbgrhSI3EOXEczq5dUt19Cc6Ro8ju2ycWoDyw2SESFbFR7YrjJ3609NiZsSk0Fz+LrMddkZXYZMckxdxPJUEE73fOr8c//foK1Y7HjovidrzTWnj+9rt3/ccrePGYPJGM4I0ZWnC1cgO8KXUY7+99Bde4YjduU60roZPqIAtCVTWseBT20uWwLrgIgfMugLVgweSz4kYDj1Me2Nndu5B9/jlkN26Aw6pvt1iytGb5YGGVfJyEj48yoA9bggtwV+xs/CCyAvutsDz2DGNGBO+8WTbu+IuzBm3HO63g0bqj4B05ehLX/NOLOJpmlcAI3ljgqa+Sgn9ZpgUf73pMzV1HsfM+nlNe5Np5b8mkk7DkSWidfzECb7oO9vr1sOrqddp0hG1+J08g89JLyD54P5zNr4olKNVgDo/hDTFO7Xxa9BLYE2jCLfE34uuRxThh6RJgGAMieLODfXj478/DnNkzlOAVD08ZUvBUh4X7kZ5XX9+P3/jaNiN4Y8ZCtZPFmdkO/FfHvViROYmok5aiPg43Gy81B/SeOgFryTLYV74R9htkWbFCqqxyXWn+T2Dj/rjAnl55iDvd3chu3oTMw79E9pmnAI7vqxWxHyerlqKXkX/H7TC+XP02/DS8APssNhuYNr1R4wrej/5wFc5cs7DfR37IoKXbs/CysnCG41Ot7DU0jJWIFPTz0sfx6a7HldhFHD7X9cUoKxzY29OtBC3wnvch+OGPIPDOd8NevUasvDrdETHdxY5Q0GIxWE1NsM85F8Ff/00E//CPYV99LdDVLov7lkeZ4TUPyO03M5vEb3c/geuSezHfSUjKOJSFaQ61ippF7fJ0zGPAEq4yiCKqzGLlccWWNrZ3GMbKhamj+J2+zbhUCjgtO00ZCzmv5dFjajCuffElCL7v1xG46T2wL71cd05w8HAlwmqOVOftlSsRECs38K6bEbj512CtP1PS5Jy1nnAzlg9a9QH5tzJzAjdLmbg2uR/NqkwY0RsL1ColdqJdfi0jgz7SecqZidXaTDqD1g4zmfXYsLA204qbE9txY2Ibwg6ni+TpL1Ph5gVm72sqBWtGMwIXX6osu8BvvB/2GWeom70iLLrTEQiKtTcDgQsvQvBDv6+t3nPPhVVXI6aCVHN5Dt2bpTyI8IroXZbch3f3bcWV8kBk+66RvNFDraJmeZMI+M/loCU+r4z0Z9Heaaq0o8WWU94gAvcnvVvwbhG8mmy3+t5E2ZALrW/ULKzqOIIf/XME//KvELj0Mv2al9ueYfDBdh6p5gavfxtCH/0bBN79W7BOnNLnkeezjKLHBx+7LN6Y3IP/1/sy1ma71EeZDKODWkXNUpfMZ92RoR/xkpErZrMOunqSbqRhZFioQxr/3LsZb01uQ1O2HZlyih0vLl+uT/XAuuwKhD7/RdU+ZdXVuRkMp8OaNRuB9/0aQj/6Eazly/W4PQ5hKaPocTgSv4N2Xmo/Ptv5OOpysycbRgq1ippF7Sq+Zqet0zB7Vlbs7mGDqmFkWFguBfdjfbvw5t4NmJHpkLgyVmPZA9l6EtbKlQj+7ocR+p0PwV6+TLfTmerr8OHo/IYG1akR+ujHVFOA1dwMtInFV0bRY+WrykngnNQ+/EPPRqzNmHknRwO1ipo10JUa8i6gKagWMen7EmbCgJFhYZ5UY69OHca7e1/EnGybPMF5EcogPLwJWfUS7EsuQ+CdNyPw5reqBvmJeZVqGsAHhFT/7TPPRuD6t8O+4SZYZ56l3i9WD5ayCJ+lSked04sbE5txc3K/VG/dwdGGYUOt8jos/NVZclrB065Y9Sm+8mQYLmx4vih9Eu9IbMPS1B4pspweoAxjvNi+xCUakZvzLKmK/aaI3fWw5s13MxjGCh8cwbffqHq3raVL5YaQ810m0aOVR9mbnWnBexJbcV3qkHr90Ije8KFWeZdmRIJHuEJGbijWiQ3DxcJKeTK/NbEDb0hsl2BMFeSSw4vJOeAiEVir1yL4kT9VvY2qB9ZQUqyZMxG4+loE/+SjahIFBc99mUSPU8avSO7EdYnXcVm6xejdCKBWUbOKxY4Mu3410MqGwbDwvt4tuCaxG2EnJRXZYZ/mkcH56WIxBC67HKGP/ZV+0Z8zCRvKAttCWcUNffIzsFev1s0IfB+5DKi7zYriouRB3ND7EqysbrIwnJ6htOq0d6J5sIwES6qywO9KIX1jaheas63gZxRLDi9odzcwaw4C178DgZvfB5tz1HnvhBrKg5xbKxqFtUKquOwQ4tsZ0Zh+i6Uslp6NuJPAJanD+FTvZtSq3zDXd7gMdKbKZHpUJvx04upMN97X9yKWp08gpDopSlxA2V5Hq6KpCYFr36Rf+l++Qs/4YSg/FD3OFXj2Oboz4/IrwGnuy1W9ZemZn+nAe/pexdVSpvghdiN6o8cIXsmwMDvbi7cnd+Pc5HY1vCCLEosQxY4N5vE4Ale+AYHr2BO7atxeeDf4EEsvIKIXpOhJNbdcHRm08sJIYUnmCH6zbzMWZjm0qfTCWikYwSsRUZG3M+QJ/Hs9z4vY8bSWQYR4Q0WkSrXuTATe/zvqXVhThZ1AOPXQuvUI/sGHYTU2ig7J9aGlV2L44AxKfeFtUnNYJdXbuMN2Q3PdR4MRvFJgBfCGdCs+mNiD5swpKYqc/KfEBZIN5GLJ2evPQOhP/gw2ewqNZTfh8HOT9pKlCH3iM7DnzgG6xAKjJV5iaNMFxXr8WN8OvDN1RH7Y3LqjwZy1MWNhSbYPVyb34ILkDtVJUXKxU1WlLOyLLtYdFHPkxjJiNzmghc1hQatWi9X9Qdhnn6dFr+TteZZ6/3pFej/eImXtynS7Eb1RYM7YmLHwBnniXp48gKZsR3na7Trb9aDiq69VFp6aqNNUZScP7MiIx2FffBnsN10Hi+2qcs1KbemxPS/mJHG+lLU3JHerh6BhZBjBGwOUtmVOH65L7MLa9HEJlViE2B6USqpBr/a1b4J93vnqxjJMTvj+beDSKxC49s16Vpoy9Nw6UuoWZE7hEilzZ6XboD9RYxguRvBGjaWGofxG8gjOTe1DtdMuhbGE1UzeKGy3s+S5ztfFLrhY3VCGyY01bx7sy6+E9cY3UZ1Q6tmT2VwSQgpnZU7iY4k9apgKpx8zDA8jeKPGQTSbwLV9m9CsXvAucVWWYhergn3R5Qi++a16tg7DlMCePx/Bm9+rrxknISh51TaIWilzFyZeFeHrQC17hw3DwgjeqLCwyEniA6nDWJ7ej0hu9uISQesu2Qd71gwEfvO31MSUppNiCsHhKvMXIPi7vy8lRR6Ex0s7XTytPM68MyvbgV8TK2+BY2ZUGS5G8EaFg7mZdtzQtw112V45iSXukTtxHNbs2bCvfTMCa9eatyimGt7bGBdfAvuaa6SaO9f9Bm4psdQ3Ua5MbMG6dAvqYay84WAEb8RYmCUW3ZnpE1iX3AV+eaqk1h2HoHC83XkXInDdW8z7sVMVThlfV4fAu94F64ILdBNFCTswaOWxVMxLH8JlqSNYlumWkCknp8MI3kgR8bkk3Yabk4dQ43SVtoixradHtnnFG2Bf9UY11bhhamOvWq1fPWueBSR6Sy56/O7Z1ckDOFcewKYecHqM4I0UJ4sl6QM4I7kDaYtfmS2h5LFH78QBBC6+APYZZ7qRhimNPCBtfjHu6quBnVv0xA8lw0LGCmFJaifOTu3BYvNd29NiBG8kWDauT5/CG1LHUOd0l7Yqyw/FsKPifb8D+6xz9Tguw7TAbm5Wg5Ktt9woIbHw2GxRMtiBYeH8dCuuSx5WAmsYHCN4I8LCZcn9WC/VBz32qUSFiyPmg1JsZ89F4G03wVqw0PTKTiciEdjLliPwjpt0B1SJByRnrTCWpo/jnOROXZYMcnoHPr9G8IYJ20f4zuy61H7MzLSW9hUyvk3BXr0LL4G9Zq1YdzVugmG6YDXUI3De+bCXLNMdUSWcVYU1jdpsB5anD+HMdLt5+2IIhiV4Znp3C/wqxXuSR7Em04IoOO6uhFWHRB9QU61eHzMfyp6mBEOwmmfBftsNSvzULMmlxAphZTaFjyZ2o0YNUTFlaCCMhTdMok4G1/Ztxgyx8kpq3bE9p2EGrNXrVY+emhjAMD3hVFLnXyCCx7nzxIgoaY9tAHXZbpybeBlhx3w0fzDBN4I3DKpE7JZnOrAsvQ8xp09VIUpGd5d+//KCC/UHs411N33h2LzmZljnX6TexFAdVSVCv32RwexsJ25OncR8JXqmLBUzzDu3kk+cHmh8XeoYGrI9csL4VC7R+eATXiw6TiBpr12nbgjDNEYeZmrC0PPO0x1TbMooKRbiThbXJfZiVrZXhSud4ua4Ydxh5qTN5jdmk/sQUeeihGInT3hr3gJYq9boST0NFQF7bO1lywC215Z0NhVLzdezPrVHWXphmB5b4hc9Y1KchrBYdLOy7Vid2qkKU8k6K3gRerphnX22WHdr1dAFQ2XAV86sM86CfcbZQJ9YeUVWyGjRb14AczLHsSzTghmmWtuPQQWPqmh6Zy2cl+lRg41j2a5cXEnguc1k1NPemjvPjTRUCtbiJbD4Me/2lpJPHxVw0rgu1YJzMlJmTZtwAQMKnhE6DwsLMrTuTrjPzhLhFnBr2QrVlmPeqqg87MZG2IsWA40zdUTJrDxZrCBWpY9ifqZVQkbw/Jgq7ZBkMTPThgXpk+rjPCUrPByKkk7BuuAiNQ2Umf6pAolGlWVvrTtDi13JrDxLSm0ATZlTUq09hQVZM0TFjxG8QbEwTwrLEnlKNmXb5MlZwle9+AJ5OgH7/PNhNTa5kYaKgkNUZs5E4PwLdXkocedFzOnBSnlYn6GaYirVyut/3KcXPK5TkefLwtWZLpyXbUVYTRRQopOgqi6ytWBADUdRY+8MlUldPewzz4QlD79SCh7LasDJYnGmE2vSUq2txM855m7XQgEzFt5gWBYWp09gdrpTTldp36yw6hpgXfpGPeLeVGcrFn6Bzlq4EGhqVq+elaodj7Adr1msuyVSrTXkOY3gVaRpp5En5BypEjQ4vVJ4Svhc4Oh6NVHARbCiUTfSUJGwB5Xfs73wElg1NSW28mzEs93ywD6Jxdm+Uj6ypyReR+wgd3KhGVhp8G3WdU4CC7MnpdB0qcJTMnrZppKGvWKlse4MsEJhWOecqzoxkCjtq2ZheVjPybIdr8/MoCJQ9EyVdgA42PiiTBfmioUXVu/OllD800mww9eaO9fMeWfQrxaulIdfViyQntJ+6CcotZTmbC/O4Qe7lYVTwTU2FyN4/WCLnYMlqRbUOUk5QSUsJJycsaoGVvNc/elF8+6sQR56anhKioJXOguPcChVbTaFM5KHxMIzr5kRc8cNAJ+G69OnUJNNl7Y6mxTrbtkqWBdd7kYYKh5OKFBdDWvdamDebLH0SjkxqFRrRehmZbsRMB/rVhjB6wclLoWmbKs8FTPylCyhhdfXqyw7a9lyN8JgECh6Z58La+GiEk8MKrUVJ4HGzGGsdHpRbay8/oJX8FpZBVb5q0XwVmQTaMocF0uvxC9f93UDsSismc1uhMGgsRYtgtXQUPKOiyDSqJeH93Ip09VsUqkkCm5dHSgQvIHErrLeq7VQK4VifbYXjdkWBMTSK2mHRXcPrEBQzZZhMPih2FmcMSdZ2jnyOH9jlZTjpdkuNZFtkQpMa5R2FYleTvAq3bLziIrgcfLEqFRnS13fd3oysIIRI3iGfqg3bgJS4ko8KSgf2AEngOXpk1J7qdDponyHPMA9XcFqJ9QggVWpE6qQlPRcZLOwFs8H5prJAgwDUF8v6hSE09rtRpQKPSno0kyfWHimDa9I8Apv8MqqzhI9RfYip0+dmJJVZ3ke+UoZp4JqFsEzw1EMRVjRmJSNJlgz3Q/8lAxL/avOtiOUZftgpd3ThfjuvMq27DQOwk4CDZn20p8Nzogxey7A8XcGQzEchN7cDMyTWgCnDyspDmozx1Dv9CBa4T21xtTwwcGZ8WwvqjKc8JOU0MLjx7ab5Olt2u8MA8GhKTNm6tmvKXglsvJYS7Hkb13mJGZLzaVWbbdyjRsjeDks1EhhmMVCkT2lCklJe2hTYuHFq1TVxWAYkPoGbeWxNlBCWIqrpOYy08mgRkdVDMXNcsMUvMp4IrAwNEuhiKu2jlIiJ11OvGXLeeRiMAxEJKJn0OGsKSWy8DwssSAjThJBp5QTjU5mBr7PjIXng29WxJBG0CqpbafhK0PsnTUTBhgGIyDlg/PilfijPvrmD2JOtgeNUoOpZIzg+ajJJtGY7ZXiwdNSQsnjw5qFmGJnG8EzDAJ77zkWr8TWHclKmZ6T7RPBS9Lcc2MrCB6yLMMQPKtfPXhaIoWgwUlgVqZX9KkMokQLj4JnLDzDYFDwuJT4ftNbs9CUTaO2wicRGIbgVQ41UhgaHc6Qwi6LUiJby6RhSZWWi8EwEJYSPHkglsXAsBCXchipBONlCJTgVd4A44GJieFfAz4BS2zy8/SySus9wQ2GgZCyoURP3Y+lvSe5NdYtKqV+4dc0v982YpeHMx1Hy3E+VPuBFGSKXskbpA3TBicrN6eUD/W8LfFDV8qfzfZpp9QjECYz/c+hMTd8BEXrQiJ6ZXkEsO2OA0pLPoreMF1wvAdiyTsV1BNXyncPAuylrWAjxwieD7bcleeESIETwXNE7LiMBpbR3kQax1p7seNAO57Zdgq/2nISG3a2YPfhDhyX+ERKtm8s9qkLv2uhBK/0pZAlO+T0qglBK5lBz2zF3jjlOm42RqfTI7bwuDepdBanOpPYvK8dDz5/EN+8Zxv+8ruv4Pf/7yV86pbX8IMHduChDYew7WAnWruSSGdMtXlKQrHjtSu1gefCD1IF1aS2lYux8MYDVaOQPxS7EX6zIC1it/NQO/5RhO0DX3gBf/6/m/GVxw7jxT0d2HukW6y8VvzHfQfwp1/dhDf/3ZP45r07sf9op7u2YUrBByJfQeRn7UoOP9uYQlB1ylUuRvDGBRE7sfAcPr1HYH21dSbw6MYj+Ksvv4Y7nj2KnZ19aLGy6Mw4Un3NIt2TQV9HGp19WaRqglgzO4yoLX5j4U1NOPknP9XIoUslbsdjTSEEETz1almF1t6E0whemWzryUy5DpmdFokEnNTwqhRsr3t1Vxu+cucuPLL9FA5KlTbBNh7Zv4j8uXxJDd51fjP+4LpF+Ot3rcBfvWslPnLTClx2xiw01UXdrRimFF1dcDradVkpOfy+RQaBCrXwvCY6Y+EVUYa3aPXTOhQCWJi7hjej7f7j3Xhw4zHc9cIx9EYkQjbRFAnizDnVuGplIy5cVIPfvHI+/vLdK/H3712Fj711Gd555RKcu7oZM+rMjCzlhPdOMp1VVnZKrO1S4bS1wjl+zLXw3MgSYjtZ2WzlWHcD9UMYwfNRFrHzCIXhHJPC3HrKjRicrFhyz7x+Cj/feBiol6e97FZt1saVi+vw1zcsxT9/YD06k1mEYmE01MdQHQ8jFg6UuhZk8MFrwl7wtq4kDrX2YcfRbrx+qBO7xD3e3oeObrHAJT072k4vdlgcOwoc3K+aP8qhePoNosouJKcVvErrrS3L0VKJAkERvCNwTongneacnpKbavOBLrmhenVECviLdy/D5373TLzzisVY0BRHd08af3P7Vnz76UNIV9YlmhDauxN4dvMx/POPXsX1//QE3vy5p/CWf34a13/uSdz8z0/hP36yGS+8fgLtcu1Gg5NOS/k4AefAEbkry2OH8LNURvAMOdjUT6O/LLAQ79wtT3Cx2vg0H4Luzl50iRWR6smgoTGGL//eWfj1qxZh6dwaxKNBWQK4cv0M2K0pPPTofvziqX3umoZywKv17LYWfO3nu3HbPYewfWcnDp/sxbG2PuyX67TxUBe+/9QR/PU3NuFz39uEX70kD7aRPoTa24F0AlY85EaUGkeOwy5f+Z4iGMHzwTLKwl2WIkErL9kDp7tNFG3odryMVJ+q4zYuXtOAv75xJW6+dB6WzalGVKqtJBwM4LzVM1AvN8fLO9tw62MH8MiLh9CXrOwhB+WC5WGOPHguWTcTb798Hm48vxmrmmOI2xYyqSy65LzvFvF7Zn87bn/+CL7zy734xXMH0TuC6+F0dEjhSwPx8rW/Zix2WZSjQ2TqYATPR0ZEKVPOJ2B1RH4kBYdP8yFgm9z562bgd69fjL94y1LMrIsg4JspORiwsGRuLZbMq0KfyPSjm1vwf/fvwks7TqGjhx8PN5QSnvmzlzbg99+xHB//wBr82Y3L8FtXzsf1ZzXjvAW1mFUdkusjt1IsgH3dSfzipeP4+j27sONgu+ptHw5OZyeclAhkpDw97DwGNQpPjfErYxmf5BjB85GSgtBXzpb/aK0U6iycNrHyhmBWUxXed9Vi/L/rliEs4la8R7aIX1NtFFeJBbhmfhWOicjd/eIpfO1nW/Ha7la5yTJG9MpANBTAgplVuPTMOfj7X1uPf//QmfiLty/BVUvrMCcaQpiZghZaRLieeK0Fdz2+H0dOue2wp4Ftu06v5A2xS74cOEjYUaQstZcVixE8H91yOjrUKRm6jW3URGPyJO9C9vAhN2JsXHX2bJwxv16qyg56whZu3yCid/c2PP3aUaRLOFzC0J+M4+DVPW3YtLcNbz53Fv7799aJFeh+kU4eSJ0h4D9u24PNezqR5vjJ0+BsegU4JOWC37QoA+yf7bNqkLTilWzgGcHz02EHcNIOqcJRljIRicA5sA/OKy+5EWNjvlgbZy2rxcp5IqRyU3VLbeWh11vx3V/uxf3P7ldtehXWyV52eD45/OSHD+/B//5sF17f1Y2zljfisvWz8Ol3r8YNF86FmOVqeEp7Ko39xzvR0j7EdyS4wWQSzosvwdmzT/Xmlx75DSeLjF2NrM02QlOlNUjB65BKyUkx+9mSVxZYmA8fgbN5C8DqyxjVKBYJ4sLVTbh6/UxRa9lnqf4e7cvgV9ta8J1H9uOWx/fheFuvmUygRHAShyMtPfjRr/biBw/vw55jXZg3M4Ylc2rV2y1XrZuBD121EDeeP1uqtnJrhSwcPtWNU+1DVGuzWanOngQ624B0Ob83kUXa4meqytULPDUwguejRwpEp8U2FApEGUwjFua+hG6vYSE/zfCU4bB6YR2uPWsWltRGEKSABi0c6knjgS2n8OV7d+GnTx/CjsOdw248NwxMT18a2w524LanDuLL9+zE01taMVfE7poLZqKxJiK1WAtV0RDeJA+fD79xES5bPUO9AtjakUBX7xDnPpNB9sABOCExz6vK10NLGe2V2z1RzjbqKYARPB9pK4ikiF5ZB1vXVknBjiB78KAq7GOlJhbCmcvr8d5rZyPGy8m2OxG9bjmGjfs78ZFvv4YfProPOw91mmEro4QPi20H2vADsez+4rubsfFgN7JpB+csacSlZ8xyc2niYnVfsaoJ//He1VhaHUNcrHp/D3sxHHCc3bVTP2PL2EPLZppWO4CusszEMnUwgueDY+S7LT4F2Y5SpichCzVfQdq0GQ6nAioB85ur8e43LFM3V8445U0WkssrUf9952788/c344lXjqj8huHD/ob7njuAz3xvM75yz151PvlQue68Jrzh7BmYUdtfpNjUsH5pPb72d+fg/dcvwaLZ1W7KAHBCiSceV8NS+Pph+chgnxXFcXmgl6X2MkUwgpfDgVQysRchdFi1qkiURfL4Tm3rKWTvvwucHWOs7XgkIsK2fG41PvHe5VhTL9WiPreqrB7tFjpsB4/saMXnfrIdf/3917D7aCeSHPNlGBRaw5sPtOO3v/kyPvezXXhyTzs6Lfda9QHXnDsP54olN5D1xlpjLBLAOZK+fEGdGPWDDDVJyiP2xDE4WzdJnblb7sZy3Y6y304axwLVaLWkfFSu3hnB89Mn1l2bHUNXYKZbJspQMlioWdAPHoBz5JD86Ni/BM/2o9p4CO+8dB6uO7MJi+rEUki5+877MWzheDKNZ/e249YnD+Dzt23HQy8ewdGWHmXBGPLwfOw/1oWfP3UA//6jbbjr6UN46UAnTvEBQSFLA++5ZDYuXtuEGUNMw2XJNamJh1W7XogdGAPgdHcjs2uX7sBiWStT+xovcUrKdqsVlhoMTdTKxQheARYyYvb3BhqlkLDwlUkNOJFAICzV2k2nfetiuNDSmCdV2xsum4sr1jSggTeZX82CFpIBCwda+vC/D+zF/92/Gz9/5hBe2d2Kjp6kGkZRyahhJF0JPLXjFG4Rsfv6fbvx7Yf2o7tTHk5y3lgcquVhdfbsKvzRO5Zi5bzqIdvmhoPT0oLsxo1wwiKcwXL2nloidFU4IdXZLiWqlXutjeAVkbYC6LEiUiTKWCjYVhOJIfvM03BOnJDyV7rfuvysObjh4nk4Z1E1Xx0pLNss62zXqwvgzo0n8A+3vI5/v+N1vLjtFE61J1Q1jtMgVRI8Xh73ybY+PLv5OP7yls34+I+34aEdrcBMsYZCWtQCYtktb4zid9+yABeumYG6qjG2t2UycI4dRfbpJ9UDsDzj73jJWZIttNtNOGhHMPQ7PtMfI3hFsOv+gBQMLXhluvndqkt206tSrT2sGq5LBatPbzh7Nt5zzVIxSeQmooAVCyp/viqAY+ks7txwAh/8wov4zLdfwuMvH0FLx9ir2FOJ1s4EnnzlCP7xe6/g97/4Cl7e3KITor7ezFQW8+tCeOPZM/HOq5apTomxQsve2b8POLRfX58yVWdZhnn1e4KzpPZSJb7KvuWN4BXRaYWxI9gohYPPxfIKHjo7kN27B9mT7C4pDdxyQ3UEbzpjJj7/nlWoD0tVif0TxYciGTOy9CCLg6kU7nrtFD7xg6345Ldfw20P78K+Ix3TcsAyTwNnK95zuAO3PrQLn/j2q/j7H27FXa+cxKF0Ckl2TPAkupeIkw02VAVx/QVz8P6rF6O+OqTeZR4rzuFDyO7cqa39snVWaCh5h+wq9FZ4+x0xglcEC8WhQA0S5ZM7DW+acATZzZvg7N7FupWbMHY4m8qiGXG898K5+INrF2JxTVTu8gG2z/tW8mak2naoO4UXDnTgrpeO4X9/uU+qujvww4f2YMPWE+pbuBSJqQz3/+ipHjy96Rj+776d+Pfbt+Prcpw83uf3d+BgV0qdB6+9Tl18WscSfruI3XsuW4C1i+pLIna06LPbt8HZsgmI8d3WEmxzEFiKOZXE9mCDPMwr+y0LEvj0pz/9D9pbeNI5+DYjT/h0Oo2e3l48/PROHEzH0ZWVp0T5rs+Ew/JehTSuTuxCtZOWJ0KZDpaFnN8uaD0Fu7kZ1vKVsEr44jgb1GviIaydX41TpxI4eqIP7SJq7LwY8JB4I8sN3yXCsFfyvryrHbuPduBEWx9OdCbR0iOCkM7I+bFEUO0xN9iPB5xAobM3hUMnurFhTxsef+047nvhsHpb4uFNLWoOuy6KWlie+/7jodhJ+Y/IcV62dib+7C1Lcdmqptx8hGMle/gwsr96GNkNz6m23HIKnvyaPMQt/Cx+Pl4N1KKjDB/5njxYqLbTWBDqwbWXLUc8HkMoFEQgwM8fWGoxgldEnxxch5T4G1LHMcPpRlDEr2wHzKrMyeNAdTXshYthzZnjJpQGNVylKow1C6rR3ZLE5m3tSPAhzxtssENimogirZ2jnSls2N6B+14+gSe2nkRHa48InYhpUAqQZFVNT+4qLEwTDfeH1XB2QnBewCNimW4Sobv7mf34/C924ZYnDuPlPZ1oEZHLRuRAKP4DCbekU+xWzq3Ft37vLJyzpL5kYsedzDz9lOqwUt+wiJRrOiheG85yDLTYUdwRPQs77Th6JsF1Kh+nF7zpLPejRIqJFUavXS9VAbZ58HFfRmrq4Bw8hMwLz6ueu3LANzH+6L0r8Le/vRrokFsgJQvV4XRwaEuV3OhRG4c7kvjuU0fxe//1Mt74qafwB199ET99dBc27zmFNrEcJ3o6Khpq3RwsvKcFtz2yC3/w3xtw1d89gd/6/AZ86YED2Md56SJys/N4aMYPBj8QIpfh4hVN+PGfn4cVc2vUDNMlQc6509WF7JOPw9mzS1dny0zKiuJEYB6eE9FrmdbW3fCwsrlxCPlCwEZOiUcymUKvWHcnT7Xgb79wP57pnYGjaal2eSPOpyUWGqTE/2vPa7i+dwOaM23IlrOxl8LT2wl77VoE//YzYukt1FXdEpMUkdt3rBv3vXgMX3hwp6ripinmtHKGAy85iwo1We6bpngQc8V6ZKdI3Aog2BzFeUuqcenCasxsiKGmNopZ9TH1binbvZQVqDY0elSpkz9JqVq3diVxvKUbJ1p68eTBLqmydiNzqEdqIGm0JpI4IiJ8ii/t08ShXtGSG2oHuPG+jJpdmlM8vf8NC3HJykbV6z3W/c6RSCDz4otIf/VLcHbvhpggElmyrffDlovVYVXjucgafKD6YpxUk3+qszg9cSzMDvbhkthJ/MtfvQUzmhoRi0URDoe1dSc1KiN4/bBQI3fJh5OH8cHuh7BUqrbZcs8S29UOq7kZgff9NgI33girisMHSg+reyfEUrvtuUN4YuNRbNjZiv3tSd2GNZL7jpdfiZ8sfKODtf7qIJbNiGBtUxR1/GxkJIT6WBjR6hCqakOY7y41saDU4kIIixDylThaTxRDDvzltzxSYmGpphRZ6LLdMJFI41hnGts7UmiXJd2VQpcIXntvAu09UlVvTWDHyT6gNQU1+5HX+XA6kSM8FjmOsAj5OfOrcPV5c/D2i+bigmUNg74hMSo4DVRLC1Jf/xqyTz8hlnZnWauzxHakWh9owp3xS/GZ2Aq0KeXnAU9TjOCNDnYdXJHpxic778H5qQNyZspo4ZGs3G1i1Vli3YX+5u/FylskIlQekeWV47xuT7x8BHc9fRgPbj6F7ZygkpbmcARiMLhhVR2Uha5bNeR3HmobQljRGMGqxjCaqsNi2IgQRkOIhYOqbYxtjSyG/Kg1rTf2qKbETXNJZdDTm8LetgQ2nEriZIsIdKcIm+ThK3PKQqUwKYFTezJ8WPTlf73sx9nNVfi1K+bgrZcsxHzxD9S0NxZUVXbzZqT/5R/1B3vYfkulLyMWUtganIMvV78Ft4Qa1Yze+kJNU4zgjQEnje92PoIbk7sQdfipnBI+7Qeip0tVbQMf+zsEr7kO1qxZZb8hdh/qwO3PHsS/PbAPPR0J9NLK4m+W8lBZVFjEuFAAueTCdN08PFTvt73fp8s4GiaexeaJMpfRwt+TJSLHy89eXrSiAX/ztiW4ZN1sRErVOeFH7qWsVGHTP7kN2Xvu1k0WZZ0ZhafHUYb3s+GF+EzNW/G8HUPphrdPUoYheGW+i6cwdgTdgXr0WZwBmXdImYnGgdomZG69Bdkd28QMK83UUUOxcHY1PvimZbjjz8/DBy6ZhblUlm5RJO8ZWAooTBQrWmHsGY3LUi2/UyM3fb0sjbI0uW6DxNcxzU2v4iJ+vvWgprqS7bDEjlXsaH22pnHxvGr847tW4EsfOlOJXZiTcJYBZd29vAHZH35DjkF+o6zvzXqIwWJV4ZDdLGIXV1OfGXTxMQzCgUATTtpVcn/RLCkzrOLwfcoTx5Hd8AKye/e6CeWD4+kapYrJTxD+8U1r8A+/vQZvu3CW6IzclF1yzLTASgVFyr+w5HkW24CLm0e8uWUs8FASWYRSDubPjOGTv74Sn/jNdbjx0gVY1FytLLtyGdSsymafeVaq97VyjUXsyvVDPvjJ7RYpuweCDWqW4xJeySmNEbzBkOrOgUAdjsvTsawzIPvhjSDVnewvH5Qb5Ck4PT1uQvlgDyqnMFq9qB5vv3Q+Pnz9UvzpW5biHWfPRIzCx7n1+JbGVL1jaK2K0PHLbutmV+EDV87HX9+4Ar917SJctr5ZfQgpXMrOiSI4OUR2w7Ni4b0olm0dT7ibUl4cJ4vjgSrsCzRO3WtXBozgDYqDrYFqKTA1SI3XLLEUPH7Kccd2NYuGs2WzmzA+NDfE8NZz5+Iv3rEcH3nHUtx4/lxcsawB8+uj+vApfrT6JvsNxP1jtVWEOuRYWN9chWvWzFBDTf78hmX44+uWYuX8upJMAjAk/F7FU4/Cee4poOWkepiND2yLDWJ3oBabgvx05GS/YOOHEbxBcbAhEMNr8oTsteukRjVOhYait2ChauTO/OxOsfK6ZVfGr8CyNsmJLa+7YD5+8Gfn4ct/eCZuumIe5ogYzsjYqLZsBLg7XmfDZLmXvH2Shd0BvGLNdhDLG6vwFzcswXf+7Fz85XvWYO3iRjnG8lcpKXa07jK3fBvZ114Cmgq/fVFOWFZ7rVq8bDfgGamhTJ6LNPEYwRsSGyftWhyQgmM7bMcbp4ITYFWyF9ktm5C+43Y4veWv2g4E35dds6gBn33PWjz6yUvx3b+9AB+8cg7mRcVS6UxDtfPxrQ1WGyfqnuLDgNYcq63cp94MzpsTx8dE5H76iYvwyD9fgfe+cSnmNMWHfMGi1DjdXUh97avIdqREfcvf457HUWX1UKAeJwNi3Zm3Kwow79IOiYW5YjKscrqwPLUPjnrjYpwOngW1uxPYvR3WitWwGuphhcs7UHUgKHqxcAB18RBmNcawZkEdLl07E5evbsTq2VE1ZrmlN410j1g0qsrrrphDztdYT5kSU1dUuX0Odma7YsJBKGRjUUMEVy2vw/uvnI/3X7sEN1++AFesb8ayeTXqE4psoxsXq87FOXkSmccfR/bu2+XB1QfZSTkH4/f7NpLYEF2Nx8KLsKOiLLzTv0trxuENiYUl2QTel9iOT3fdL+FxFDySlJsl0Qv7qqsR/I33w16zrmwDkkcCBwZ3dCVw5FQPth/uwpbjvWht6UOLmlmlDyc7EmjrSeNQXwbdFEFlBcqKHPXB0+ctg8HixfzKcpSMHI4SsTE7amNmLKgGL8+ojWBGTRT1jVHME8Fb0RxX067PaIir19kmajYXNQTlxQ1If/sbcPj5RQ5BGZdhKB5y78pT4bPVb8FtkRXYa/MhWSH3qxl4XBrelNyP73X+EvXZTnWW9PcuxgFW1+Q6oK8Hwd/5EOzr3gp70SJ5hE+eagp3sS+VUQJ4vLUXB453Yf+xbhxrTWBLewqtUqXLdqeRSmbQK8eSYK2BA3EHaZfkmQ3I8YVliQVsRIIB2DFZqoNYXhvCEhG3eU0xzJ9VhQUz4qivjSEeDYkVNzECV0BKjnXLZqR//jNkb78NaJghB0OVHx/YdsfnxAm7ER+qvQYPh+ZLqILuVSN4pcDGxelT+Hz3BpyX3CxGCs/OOAoOhSGRgDVvPgI33oTAW98Gq77eTZycsHSkpVh196WR6EvJ7qfQ3p3EkVaxANsT6BL/YJ+JZMGMiYDNrI9ijlShZ4olFxGLLSTVar6fGwkF1BjmSYdcJ07Xn/7xbcj84m7VaTF+vbIaS+QuJX8fj56PT8fPwga24SkJrBCM4JUCC6ucXvx+Yi8+1HUfYizYqm42jigzqhfWylUIvO0GBN/5rkll5Q0ESwjbgbnr/MNSxskBWNyUdcf4gZBiqAqnuKyW6plWZGES3XwxnTzwOLu7kf7Ot5B99BH9YaYJaHqwkEaXZeNfat6Jn4TmYn8lVWfJMARvct81kwIHB60Ibg82ox3BiSk+vMv5Ae+9e5G5/16kf/mgbgyfxFCX2FFA0QpI1ZQzj3CiAL67Wh0LoTo+yCJpVZKHY+T4qpc3u7I3xdSkg2LX2YH07T/VX6FraRl3y46wOpvhqAKrCg8Hm3DcpuBWkNgNEyN4w4CzTOwMVGN/cAH6RPxYdRh3eBNl0nB270Tmdqk2bXgBTkdpvmlrGD2qR/ZXjyD7y/vhHD2iBHAirG+WyR4rhu2hZThox9TM3Yb+GMEbJkkriOciK9FmRd0xeRMAh6WkUnBe3iiidyuyr76ipxoyTAjqQ9ovbkDmzjvE+t6jO5gmwLpTOGkctaO4N7paHsrj3OQyhTCCNywc9MoT8+7wfBySqgIrDxNGJApU1SD78zuQvUuqUZtem/TV22lJTw+yzz+H9B0/hfPqRn1dJkrsBH6ZbJsdwddCc9ClbmtTnR0II3jDJCmC93ygXqq2zei2OIPKBBYo3lgLliHz0H3IfOurSD/1pJtgGBcyaaTvvhPpH34PzqZX9fCTCexEssW6OxmYg32hVRKg6BqxGwwjeMOERYjT7OwML8bR4Aw5ceWfr25wLBG9EFDdgOzOXcje9kOk7/mFsjp0t6ihLPD92FOnkP7ud5C59x71MW3VzDDBPeZ8s2JHsA4vhOcZrTsNRvBGgojJI1JleDlQJ94JrNZ6xKrkJnSQ3bEdmbtuR/rhX8I5elTdmIbS4iSTyO7doyZ0yDz4AJyDB3WbHV8bm0BY0+iRGserwSY8H2yQGKN4Q2EEb0Q4Uq2twctSuDrtKjl5k2BQZzQmuyXFfvNryNx5OzKPP4rsvr1qsLKhNHCMnbNtKzK/fEDPYHNYxI6M6ytjA8Eh8CkcCs7CpuBs7LYqbNzdKDCCNyIcpC0bR4JzsC+4WLWdTIoCRisjXqXmz8v84PvI/PxuPWMyRc9UcUcPz11vL7JbX0f6pz9G5rZb4LS26GrsOL4yNhgceGI5KbwcWoDdwWYJmKEop8MI3kiRe2CrWHjPhmdLgL2jk0RQOLtKdbVYI51ihdyB9H98Xn/cW6pihlFAsevpQfrBB5H+t39B9uEH9Dmm2E0KYeEbP0C73YCfhJrxtF2t99kwJEbwRoyDbVYUT8gT9VhggYT52tMkEj02oPP1rZ07kP7KfyF964/gHNgvcaZdb9iIZZx9fQtSX/sKMj/8jm4X5bcoeG4niRWl36xwsCW0DEcCjUiosXdG8E6HEbxR0CGFa2egHi+Hl0mhy0rhm0QvaFP0OGwlLbfDnj3I3H+fGj6RefwxOC2n3EyGweAEAJkH7kXme99S7aHOoUMSK+d00lh2Gtp33VYQj0QW47hdng+3T0eM4I2SI3Yc94YXocOOKMmbVPDG5MvrVTVi3e1D5hc/R+a2HyLz4L3Ibt0KdHfrHkaDhsNN2tqQ3bhRv6v8k1tVBwUkDrH4hA4oHgg1K4oVwqHADDwcmoUT5r3ZYWMEb1Q4OCQF7qehGdgTmC/VifDksvI8KHy8YSNR9TGZ9Oc/i9Q3v4Hsa69qa4/fvq3kdh8eu1RfnWPHkH3uGaQ+/y9I/89/wdm2TQ8m5kNjEll1HixrHVYcG8NrsTlQg05zGw8bc6ZGjYWkHcXzkdVos2MSYo/tJIVtTzPmAbXNcJ5/GqkP3Yz017+ieh/H44PfkxV+BpOTMKT+8wtI/dH/0wOJa+uBGn4LYvIJHdFtd5b6mt7PIkvQq25hY90NFyN4o8ZRs6h8PTxXnrJNSIGzqEzigsdhFBw3ZgfgVDch++QTSP/XfyD15f9SvblOe3tlDFjm5AsnjiPzKC3ef0b6K19SFi8aZ+qqKz+GPsFvTgwFPwrfZtdjU3ARngnWwoy2HBlG8MYAbaPX5Um7JTQfpwL8MOAkFwxaLRS9ukY4nV3IcjDto79C5kc/QPpb30DmsUeRPXBgWg5apjWX3bUTmQfuQ/pr/40M2+k4f92ePXryhfqGSTG27rRINXxHYAaeCS/ASbl9TUvsyDCCN1YsG0+FFmBzcIbYd7Twpkj1gm9ocIaP9jax9h5H5se36MG199+LzLPPqO/iOq2tWvymYgcH97m3V3/5f8cOZB9/FJmf/0yO8TYRu1uQffF5XZ2vqlKTq04FbHmgdtlVeCk0C88GxSKdKmVtEmEEb6zIE/euYBMeCXIWlfjkrtYWo3pzI9q6iVfDeWkDMt/4GtL//nmkb9MWEN8fVW8XiHggnVbHO2nhvqWlyirWnBK67duV1Zr+/nel+vpPyHzvm3B27gSa5+t2OvVq2ORsq+sPvzebxq7gAjwvNYqtAXlYGcEbMUbwxowUOjuEg8F52B5ajIDDiu4ULIhst6qqBqpr4HR1IvvAPUh/5u+Q+vu/QepL/4X0gw8ge1Cqu5lJ2jnjWnTZXbuQvusOpL7wr0h94m9EvP8F2SceEy2U46ufoS3bSdohMTSsP2Twk8gCPCm1CTimMjsazEd8SoKFOdk+vCexFf/a+SBsaypZDgNA8eCbGazy0QKMi+Uaj8GqigMLl8JauAjWkiWw582DJdah1dioG/zHS0i4f8mkmnGY0zVRiJ09UgXnGyUH94mFJ1XZ3j7XKpVjoCXH9rkpKXQsSfzSrIVdoYX4q6pL8WhotumsGAjz1bLx5fL0UXyx6ymsSe1X3zUb1885lgtVTRSrjsLBpbZeC5wsVl0trJiIYZ1UD2c2w+LSJNZHg4hgVMqJWFOWiCUiIpojhb/b16erp30iXPRLOcTJE6qXFSeOqY9eq/S2dqDllG5z7OrQIj3FRc4Phzx1Smn6bPXbcGdkifpmBUuXoQgjeOOJhSVOH34jsQ9/3nUfahy+6TgFev1GCi2/tCxJsaASsrCKa8txzp4La94CWHPFnTFDCZ4Vo3Uo1WQKX0jKV1jEjx0EIbEGvSEgxBNUWpSppBY3fre2T8Sst1sET+IobMeOq7Fyanqm40d1kQ3K9tj5QpGjwE3iISWjgdZdQv5uC9bjHXXvwTFOEmAYGCN4442FWU4v7m+9Bcsz7WDF1vGd12kLrTFWMylYSalsiVAhIVZZt1hcnQlwrlSrVsRthlSB68Q6rK4FauTGpRhyve4ubZl1doi1JuscPSpClxbRFAGrkfIWr9eixvY3Zb3Jtihs08B6Ox2c7+5AoAm3xi/DF6LL0e7WHQwDYL5LO/70WWE8IIXzZKBGFdaKgMJD64pV1+oaoKkZmLsQWHYGcNZ5sM45D1h+lop3xCJzxDJ0TkoVdP8+OGx/k6qok0rDiYigNc8F1p0F63xZ54xzgKVrgTnzZF2pKleLQPJ1r2lSVT0d7PFPymPzJRG8L0SWuq+QGbEbC0bwSop+++Jb4YV4NTAbvZZU6yqpgFKEaHlRkFhdZfWVFhmFUFU5PcuMi0+w6FdTW8l6tN6YX60j66u2OK5HkStab5pjS2V2V3AWno2sQbsdNoOMS4CUIEMp4aCN7XYcz4SXYn+gEbZjJuDMQ2HzLRQ/r2rqLQYF2+66rGo8HZqPh0L8OI+x7EqBEbxyYDl4XKy8jaG5UsUNVZaVZxgzLC/smd0RnIcnQwvwSoDz3ZkyVAqM4JUDeRo/HazGY6FF2B+cLyeZdp8psIbhwrY7B7+KLMFrIX5KwFAqjOCVC9G3V4Oz8WhkMbIOBxYYDKeHVdmsFJ7N4bPxAF8hs6MSax6WpcIIXtlwsD0Qw8MstOG1qhCzMBsMg+NICbFwyqrGN6KrsDVQWyn9/OOGEbwy0iGn96VAI26NrkWbFVOSZ57WhsHg9GKdVhQbwyvweKhZhE+P5DSUDiN4ZcXBYTuCO8MLsC20AL2TdSp4w4TDjooMAtgbbMTt8oA8LFXZpHpAGkqJEbwyw0J7xI7hgeiZOBqokRjzxDb0hw/C1kAdngktwvfCs9GtxM6UlVJjBK/sOOiSwvuVyDw8J4W5y+YbGBk3zWDQ1p3jpPF8cA7ujaxSMYbyYARvHGAltgNB3BdZgY3B2aryYsbmGTSc2DOFvaGFeCK8FBuCdSrOUB6M4I0bDp4JzsST4UU4EpgpJ96MzTNoklYAd4nYPRSagxYzOUBZMYI3bjg4YIXxK3mSPxpeLnJnqi2Vjh5zl8G24Dz8IrwAr6k2XtOpVU6M4I0rWTwRbMT3I0tw1G4UCeRAFfM0r1wy6LYs/Dh+EQ5w2nbzECw7RvAmgH2BGfh+1aVIog+W+gaGodJgk0anVY1nIufglvBcHDJj7sYFI3jjDsfmhXFneD42RM5Elx2Xi2B6bSsJWvUpBPFisBmfjZ2Fo1bYNHGME0bwJoBeOe3bROi+Gj0LWwNNqrCbqm3lYInc7ZEq7GORlSJ6Te4AY3P9xwMjeBOCo0TvdrHyng4vwgm7Voq8sfIqAV7nDiuGZ8KL8Uh4mdtsZ8RuvDCCN2FIIbdsPBZdh1fCC+Q2YKE3BX9648By0ng5vBL3hpfjuWCVRJlrPp4YwZtInCweDtTiPin8e0JLEHT4tVFzA0xHvCaLE4FZ+J/oSjygPqZtrvV4YwRvgumVW+Ge0Bz8b2Ql2mw9yt60501HHHRbQdweOwdbgzPRK37zcBt/jOBNOA4O2DE8GZqPJyJrkDQj7acdbLfrssJ4ObQMd0QW47Adl1hzjScCI3iTAgsHg7X4SXQd9gSbkRDRM9NITQ9orafleu4Wq+622BnYEKhR8yQaJgZz5icFDo4jiHtDjfhF9DwcC9RKnBG86QA7KY7ZDXgotALfCC8y0z5NMEbwJg2O+tDyF2LL8ER4GTqsWgTkZjFMXbR1l8WtkXn4/2KrJcY8xCYaI3iTCN4O7VL9+WJ0LX6mhqrom8Yw9WCTRNDpwkPR9XgishbtdkxizbWcaIzgTTocvBZsxEOR5dgYXgjb6VNxhqkDxY4TQ+wNzscvIqvxSrBZxRomHiN4kxJbxG4BfsGP/9jVEua3rIzoTQ30l8darThuj56Lx0JzcMRMDDBpMII3KXGww4rhgdAiPBk5H0l1mUz7z1SAD6ZuK4KNoSX4QnQ1tqshKObaTRaM4E1astgUqMLfxtdiS3ABEgjJxTI3zmSGYkfrbqtUYf+n+mJ02caym2wYwZvEcBaNg1Kl/WbVhdghNxG/hGGqtpMXSx5Lr4dm4+fRM/BcoNadBcUwmTCCN8nps2w8GJ6HX0ZWYW+gUW4hM2Ho5MNBQOTteGAmfhVegXvCC9Bi7PFJiRG8SQ6Hpuy3grg7shxPRZaiw47LzWXG500eaHE76OH3SsKrROyWYrNd5cYbJhtG8KYCThbPBOtwT2Q1Xg6vFsuBU4Ya+2EywCYGXo1XQ0vxlegK/CrYILFG7CYrRvCmCk4GD0iV9osietuDy+SW4qwqRvQmEq+T4ohdi49XXYTXAk1uihG8yYoRvClEr2WLpTcDn4ifh8N2g1R3bXXTGSaKLHbJQ+hrVZdja7BRrg9nujFMZozgTTFa7AgeC8/DT2Jn4VCgRtkYhvHHRhIHAvV4OLoKP2PbKoLmSkwBjOBNQdhA/oPoOvVdhBb11TPTiTGe8Hx3WHE8FV6GuyKrsUseQuYKTA2M4E1BODBlUyCGO6NnY2NoEdKOefVsvNDvyabxUni1iN06PCpVWbavGqYGRvCmKiJyDwSbcHv0LGyKrEXI6TKiV2Yodvy3JbQa/xlbhwdCTUbsphhG8KYwvbI8GJqJr0fXYFtoqWrPMz235YHnlTMX7w0041Pxc/AcOynM7TPlMFdsSuPgsBUW0ZuDr8XOxjG73u25NaJXSrzhJ/sDDbhNzvPjcr5b5Lyb4SdTDyN4Ux5+BCiO70eWq7nXjtnVEmOmES8tGRwJ1OBXkWW4JbYWPWq6J8NUxAjetMBBh1gc/1R1IZ4ML0KnFVFWiWHs0Fpm1fXR8FJ8L3omtovYmR7ZqYsRvGkCm86P2yF8JX4+7hNrLyOCZ15fHytZ2E4PnhWhuyeyHi+JlcfOIsPUxQjeNCIjRt3mQC3ui65R37h1HE5QZCy90cBvybJH9pXI2fi+nM8ng41IummGqYsRvGkFv3wWwNPBWbhTbtItYVp6pud2pFDsElJ13RpaiP+NnYlHgzNx3ApKinl4THWM4E07HOxXPbfz8OPY+dgbbEbSMj23w4XnKYUgdgZm4pboWbgtPE/1hBuxmx4YwZuWONgjN+lXIwtxZ+wyHAo0yG1s3sYYDpaTxcFAI34WWYN/i65SFrMRu+mDEbxpC6u3Fr4QXYyfRM/DfqnmBtUnHw2DYTtpdNo1+FF0Nb4YW+vGGrGbThjBm8awEtsul/h7kaW4NbIOe4JzRfQSEmtu4kL03IIJK6IGcN8eWaGG+ZjzNP0wgjftcbDTjuMOEb0fR9egxa5TN7ep3nrwPDjosgK4PbZOqrLLsTNQ58YbphtG8CoCB68G6nGLWC53R9ai3Yqr29mInu6k6LBCeCG0EN8Q626rnCfztbHpixG8isHBpkAD/rbqIrwQXoZOK6riKhlVjZW/m4Kz8bWqq/CSnJ9ONWuxeRBMV4zgVRSOVGnD+ED1ZXgkvBR9iKiG+kpEWbdOEq+El+DWqkvxYLBRzgcxYjedMYJXYbAj46Qdx1djZ+IXUsXts6MiepU1p5tqw3QSeCWyBj+NnoV7g81qqi0jddMfI3gViYUXQs1ys69Sll5SqnEUgUq45XmcfPtkm1Trfxxdj/tD83BIzX5i5K4SMIJXkTjoQQBPhebilug6bAzNR18FfHGLYse3TvaJRffj2Hm4M7wA28XCNWJXORjBq1gcnBDL5pHwPHyp6jLsshuRmMavoLHNzhHb7nCgHnfGLsV/RxZjtxprZ165qySGLXiWZbrqpx8OWsTSe1iqt/9Scy02B2e4kw1MP4sn6PSIZTdLqrEX4PPRJeotFGPZTU+G0qrTCp5XJGzbCN50hPZNhxSDx0Iz8c3YRXgmvFDiOFhjeogBjyMkYrc9tAg/iJ6N70WWoF1E3th10xdPqwYqwcO28MIh81X16Qpv/hMI4pcidj+JnoFnQkskjsNvp7YscP/5ScXdQbZVnoE7w0vUWyfGspveDKVVpxU8moe2LNEI2zsM0xcHB6ww7gvzuw3n4lWp/tHOm6riQLFLyd+DgQYR8XNwa2Q5NnPGYiN2055oJKQ0a6Cq7ZCC561AJx4zHy6Z/ui59O6Wat+Xqq/D/kCtsvOmXvWWXxnL4kigDj+LXogvxNdhh12l4g3Tn3gsrDSLFIve8ATPtlFdFVF+w3THwSkE8EBolojem7FVLL20xE2l6m3ASeJQoBl3RM/F5+Jr0WHmtKsoqFXULDIiwSPMTvOwtjqmIwzTHr530SZF457QbHw3fgGeDy8R0bMkZrKLnqPEbl9wjhpf+K3IMjmO4BSSakMpqK2O6iqtG/YztOBxJctWvR71NaYNr5Kg6B22grg/vAB3RNbihfBipCRuslp6er+yOBSciVtF7H4aXortps2uIqmvjijNonZRw/wMKnjKFHSkKiOObQdRX2csvMrDwW4rgvsii/Hj6Bl4KTQPfZPwYzYUO1qgR+w63BlZjx9GVuDVYIOkGLGrROrrY0qzlNYpDcuL3qCCx6LCjLbUhe2AjcY6voJjqDwc7BLR+4mI3n9WXYltdqN6DW2yWHq6QyWLE3Y17oueiX+s4px2tRJnxK5SaawVC080i9pFDfOXhAEFL2/diVlIwRO30Vh4FYx+I+PB0Cz8Ue2b8Vxwjvr6vq0qvhMLv9NxxG7AT6Pn4BNV56IdZiKASodapdrwXMHzW3lDVmm5cMVAMIiaqjDmNnHQpqESoT3XLcXl9WAjPll1MW6NrEZCxGWippbSb1B0Y0doAb4TPxf/F1uFVtVBYcSukqFGUauoWUr03MVjUMEjXsZAIKCWtfOqVdhQmfD1e86y8kJwLr4dXa9Er8+Kivhk3Krl+MDqNFvtdgQX4ofRM/DT8DKpapsOCgOURnl6RfxiR4YUPOLVgwPirp5nLDyDiIoVwFPh+fhK/CzcH1mGjnH8RgbFLinFdn9gJm6Lna++07HZtNkZXKhRgYDWLGpXMcOz8GTFYDiENbNNx4WBaHl7OdiMP66+Es+HloroRSWW8eUTHgoqZ3M5KNXqn8avwH9KNXaXeTfW4GO1aFQwJFVaV+xGZOE5bmOfLeZhMBjCyjkRVEfNJAKGPC12DB+ouQL3Rdahy5LqRJm+kUGxs5wkdoUW4Yfxy/EFM8WToQhqEzUqyPY70SxqFzXMz6CCx8xK7EQpuYRkIyERvStXcXyToTKhwLiLenKygmnhpIjev8fW4dvRM3A4MENEj0OUSydEnti9Gl6F70bPwS1SnW6XanXW3Qe9GCqdK1fVK42iVnm65emYx5AWHlGix0UUMxwM4NIlplpbcfAp6WSBrFhvWRGzTAJI9crSDSQ71fJaJohbrFn4ob0Ye+1GWYlSOPaxetxGWpZX7Pn4kb0EP3fqsDst+5Ds0vvAfclIOJvR+1j0RDdUDpcuiSmNolZ5PbTFDEvwSJDV2nAIly81kwhUBBQOikhaBCVNcetxBU6EJiEil+jIL33afSkTwnfsefhJYBn2WA1IYGwDlLlur2xju9WEWwKrcLuI3fZ0Un6vzff7si8pip/sG/eR+8p9pjhTAA0Vw+VLw0qjqFVkVILHOjC7eGkeRsIRzKwO4Q2r+QQ3TD88S04spnSfFjeKS2+Lu7TqMOMpLLSumJdj8ZR1lcUORPH/iZX3o8CZIlR16vOH3O5Ie3CZPynLTqsW3w+chf+zZ2I/i2uxlan2sV3vm7efDCdFANX+Ufj428bym85Qk6hN1ChqFTWruP2ODCl4VEj/wsF84UgE167m3GKGaYH3FMyI5USLqeck0H1chENchhnvWUrMm3sh27/4cdAlcV8Sgfp08Fzcby8XSy8o/zgd5/BEJyiVWHZ9PGkvwheDZ4vYNco2ibe++7tqf3wL4b5mRKzVsZzSx9IjC61QWoeEx9Bvvw1TGWpSOBJVGlWsW36sbDbrliJfgni1OkqlIptV/lQmg2RfHzq7OnHoWBuu/M9dEmeqDFMSFgJeX7Z90QqiNacsoVK2g1loQAaLnG5cnj2F38oexVrnIGLqdTTVDaFcDX9PW4GUxd3WHNxmz8ajIprbrRocEwnUeUaJKvQicrZUdeyQKGoECHDha2hMK8XxGiaKUMDG4x9dhnmz6lFdXYNoNKqqtRQ7/7d4lAAOV/CyFL1kEl3d3WhtbcNn7z+OW587ofMbphByXSl0FDlabxQ6htVNr695qZnrpHCV0y7idxznigByoqkaJ42AmnBKfh4h9FhBqbIGscGK4Yg1E09Y9dhnRdQg49IIkrsNWne2CCiFj6IXDItfliJLwDB1+LWLZuJTb2lGQ0M9qqqqpFrLGY+1dTdiwaOrBE+EL51Oo1esvHYRvKd2tuK3v7NP5zdMDVR1T0RONfD3itiJtTUuNzp/g0sWV4rgrXf60CRSxhf/SVqErQNhbLaieMhic4k3Q3EphG4gZLvcNC2+UEyWuPxkdJzOhaHUfO8Di3DZ8gbUieDRuguHQjnB81/SYQge3bw/lUohKVZeR6dYee2t+OPbjuPJHa0qzTDZkWvI3ks27lP01OWeiBucv+n9rue6RVC5nn88cH+Lll60QVd1DVOKy1c04H/eJ9ZdXQNqa6oQEuuOgkfYeeEvT8ric/2D4ikl8V7KjUTCiEaiePdZZjKBKQGvH6utHLahxM4vOuMNCyDbfrmwPY+LFx5PsSPuOWCvL3t2vc4Zw5SBGkQtoiZ5+kQ8zfLwwqcVPD9KIWWDbBDkZxuvWh7B2Ys4S4Vh0qPa6sTCmyidm7TICaHQZd32TLc2Y5j8UHuoQdQi9XaF6FKx0BUzIsEjfCk3rMzGMGKxGH7rfPOq2ZRAt024AUM/StY7bRgvqD3xeFyNvQtJNdabMGAohi14VE5vYd2Yolclgnf1ijAuXFrn5jJMSngje0MyDAMgVgHPjSXnyFjAUwJqDrUnHo0qsaMmcfE0ajBGbOHJ1tSG+SNsIKSV98GLOR+ZYVITCOseyVFc8mkPh6mEq8Rl+49RvKkANYfaQw3yBI/adDpGVvopdkrw8qJXJSblRQujuPHsJjeTYVLC8WfBOBCX60R/xVffWMWXaiwHH0dqRPBkGcYNY5h4qDUXLYqI9ojg5aw7fe1OdwUHFbyBzUJ3ikclejaC8mOs2lJpP3RxlRrxbJjE8CkYjIrozdA3OS2bimvbUyVYCrgce0RqJtF6PQ7PiN2UgBpDrYnHq0R7IkqD+LEeapIfrV+6XPu1bMQKperI4lLwOJUyFTYuSruwMYqPXtusMxkmL8rSE9ELV+sbnsLH8Wfq/VJh2omfK3BK5KTkcswdjz1ap606NeBYD2UwTH6oMdSamNt2x2Eo1CJqktImn7gNxMgEz3cv0MteET0uL6qqtu9eH8MVK+WJaZj8sE3PL3rqbQMRA1bxVOP90AVn8uIrpDwGHov3GhmPUR2zJ3bmlbKpBLWFGlPN18c4UQDFzntQDxP7dIrIAuTl8bvKT1dEj2ZlNCZmZlUcf3ypqdpOKVSDvYhArEmWRlcMRBj4finTVIGaSqLAcin7zH3nMVDkKOrq+GShX/VWu1afYUpATfnjy6qVxkSicaU5etwdZej0lp1CLrfluO+NFdRk3HW9V8oYkXvVjIv4GWSLHt9MSyZT6Esk0N3Tg9b2Nvzs5Q78471HVX7DVERdXFky7oDllB6YS1eNV3MXlY8Zia/AFZS9YRTEfnjb9FEQxYBsl8KmCjoFjgstORE5WqnscfUsVYd51YqGKconr5+NG8+uRUNdPapicUSjEYTDInpyfVmlZZlQwqezuwKoC43yu+Vn1ILHOE4owGKfzWSV4CVTabR3tKOtpQ3/9UQnbn3hJFcxTGXUtfZETvye68VJGdDi58YXpNMVPDdHcbhIjVSQf2RhYfWETVmb9BcvXh5ZcuvIUrxdw5Tk1y6YgT+9ogYNjXWoq61DOCg1ShE8W6w+XnHVhudeau+Kj1Hw8umM014tgpw2ilaemliAs6n09qC9vQsdYun9+d3t2LCnQ+U2TCekBKgCQZcOBc8fxzC9nst4D7+/GCl4Xon1mpf94lUgaG66FzZMS85fUosv3lCH2ro61NfXitDFpHob0NadCJ3+dgWLAMsA51T0qre6nGm/4Ba7UQkef4EuvYym4NHaS6rZVFLo6e1Ge1sndh7txEduP4Fj7Qm9smEa4hYW4vMqfOVH4xUi7eTIrVe8AQn7o3LrFW/AMB2ZVRfBl989E8tnV6NWxK4qxqEoITUbijcWmMXDEzxP54YSPO8xOWzUBvzlTfl1BL8HySUa0T0pi2dW4VNvbsz/qGEawmvvLuoJ6Fv6wXIgC8uDf/Hi+1G8PW8xTHeoGdSOJc1VqK7mjCixnL7kKC5jwygaPsHrX5j8QjW4aLmNhbJQcdUULRS9qjiq4lGcu6AK//T22W5eg8FgOD2fe9sspR3xWBTReNwVO465y2uNpzuKAukaXPkGsPCGIZMu3g/qHeAP8wtnIno269gRxMTKq66pVp9P+8RbzKBkg8FweqgVVyyLiHZwqJtUY0Oc605PDkA81yMnesNgBFXagay/ojj+k/hQiF/+ttTgwHgsonpW3rQygr+5zoiewWAYnL95U7PSirraWmXdRSIRJXZ8q0IZV6rpQ3QnJz1+/+nJCV6BSvo24I/P+4t/QYfVDrl5+BaGmig0FheVjqKmphbXLQ/i49fNUOkGg8Hgh9rw1tVh0YoaxOJRxEQ7ggEaTyJTIjF+fSnWIC86n17o9yiw8AoycHvFuuZSvFH1z42jyx3kotrzZIlEY4hX68bHa5dH8A/Xzyz8LYPBULFQC6gJ1y4Pq88sVolOcEIS9eoYF9ESpTM+ydDhkWiIFrR+Vdphb8RVXD8qrOJlkbCaDj4YRIgDBfm+rRxITU01LlsSwRdumIHmOvPRFIOhkmmuC4sWNIkmaMuumtYdJwYIhlXnJwcXKy1hH4GnLTndGcQiG4LcODw/BTH8naIIPQZP/7r263U4JJkuByPTzWSzsnCcXhapdBo93T3oSybQ2d2Nro5uHGjpw5ee7sPL+zvdbRsMhkrh7IU1+NNLo1jQGFUdFDXs5KyOK+OIzWHqTQrRHzaPUeP8g4wpeZ6fYuOJoOvkwgrRIvfP8ASP5LP1f82MQeWqsI7nYGS6GVG8jETSTSYSSCRS6E30oVtEr7unD51dnfjOSw7uerlFchsMhkrgprMb8YFzLNSwChuX2p+IXYydnHGOt9PNYRQ4dlhQgtRwFHGpY9otFD+iRY6q4/kFHRTceBGqXJRHQYy3Xi6yv+B5cfQypMWOr53pbWlLT0QvnUEylUQymRbRS6CXgtfdqcTvkd1ZfPmxVqT5bqbBYJiWBMVa+8hVDbh6qS1CJ1Ydq7CxiBK7UIhfQ2SvbECsOu9NCscVOz30TYmcbMcTPOI6/QVPe13ceBGqgmjiiZjCdfzZPK+Kkw3TpVct/Kdc95UzN42Cp6u2FL0UEskUUrL09vaiq6cHXZ1d2NuawfdeSuCFPaaKazBMNy5YXIPfPjeCxQ0BNT63Oh5XnRPhCL+CGFSvjfE92ZzYifZ41dhcdZb/6KpF/oi4aPETv0/hRiF4hFvVPn82/xr0eoJHPIHT8TrsCR8tPFp96UxGtenR0kukOOFAL3r6esTS61XW3i93W/j2M23G2jMYpgG06j54ST3etNRRVdeqqpia4kmJXTCISCSk2uz0Yhd0VOSFjiLmuZ7oUf40fsHTfkEHXVxhHFrwBHfl4mxeULmSxRM9Bj2/J35a9GjxZbXwiepR9LhQ9FKpjGrX6+3tQ4+IX3dXFw61p3Dnliwe2WZmWzEYpipXr6rFO9famF8fVt+hYBudvwrLiQCU0AXzlh1dys5Q1h0ZieDl1hFx8kVrCqMkp7e+L97zqjjZGl165a92lZ8ixxjXlUgKH9v0aOnRyqOfVh5nWUkkE0j06U6Nrs5u9PX1YdMJ4K7NSWw61KV+z2AwTH7Wz6/GTWvDWD8TiEbZC1utRC4a42wnUoUNi2UnYsce2BDfkRUNUR0UojX0e50UQ3VWUGQ8cfMELyd2hMKj8OUTEcpFexRGuRsQpzjeC/Ov9rvC54Y9C48LBU7Ficez8lTvbTorlh7b9lLK0mP7HicT7RWx6+0Rlz26PT3YeCyA+7YmsP1oD3/SYDBMQlbOjuOtqyM4d1ZGfeeGY+piMf3Rnahqqwspyy7EyQDYXiciR4tOWXciSpzm0C941Cl+t4KuDvOvWz3lDwpeXN7voqIK44cveES8+bRCwVOuhBlFyVOu8uetPMcVO4of43K9t7KwequsPanicuZkWn8JEb6+vqRUc3vQJ9VdVnlfPh7Ar3an8OrBbvWbBoNh4jlzfhXeuCSEs0XoKHBRWeJqKvaweh+WAseOiYhYdvq1UwqdJ3Z8M8urulLsqC6FoucJnOenoNAhWsyoMJ7fhQLk4sWPQfCIV5WVONmg9usUOvRrK0+LHMN50XMXqeLSwvPG6ulqLmdQFmvPJ3qJZFK38/X0Kgtwdwvw7BELT2zvNp0bBsMEwM6IK1ZW4eI5DpY1WSJmYcTYRicCFwlHcmLHjgladRS5nFUneqE6KDyLjguFTrk+cZN/Kuz6qSzMQx8ZXOxyfxSjFjyST/dZeXQknS7j1D/ll0WS+rXlcWFHhvLrnlvtuu177Ml1OzTUTMppEb0ErT+x+Pp6kRARTPYl0NmXxisng9h4KGOsPoNhHKA1d+68AM6akUZNVCw3Cls0gng0ptrnolHdThcKaKHj7EkUR1pzHFQsjhI+up7QeaJnSaRyJY1yo1yGfX6i/3phKks+zQ0KOU9+PRGffKxLYZS3acHbXi69SPDoqh9xrT2G5Y8WOwqcjqPQeemqA8MVPn/1lqKne3LF6lOiJ+InfnZspJIZZfElk31i7YkYiuWXEFFs685iW3sYrx/PYvMRsQYTGfkFg8EwFmKRANbNiWJNs41VdUnUV9mqwyHMToiIuOGosu5CYQ4cjorQWaqtjuKWr7pqv7LqREcoaqrdThbKioqjX+KpTSpO1qHr6ZiKVwGx8lRKPpzza69LPjAmwSM6j47w8ntRDNPPoN/vt/IIXc/C83puGaequOJmGC9+T/jSaf3dDAqf6uSgxSduUokfrb+E29ublLwZHO20cKTbxtHWNA61JdHWlVS/azAYBqe+Oox59WHMbghiTlUWs2scZaVRxPQ3JfiJRA4UDqsviIUieoIQfjvWL3T56ivfh2UVljOfaHFT7XbiagvPFT1GuC591Cj6lCt/tGblxY7oOM2oBY/0j5YVfBvPp+etPEKfDhdbedm8n39cV4kcXfHQ7wmftvS09ZdmmgpLNVcW9uxS+NKSL60EL61FUbX5UfySIoiSV9IyFMKMuFxXLMNkyhKrUCxFqQqzipzikBixEimQHBjNfNy3/sdvMExd1A0v/9VrW0E97i0s1hmFLCKCFZGqaTRCwRJxY8cCxSsQQkD8SsyYX6qpEam+Msz1GaemXheBotAFROj4poRumxOBc0VNWXmiejmrTuI8ofP83De69HouhU25/CM3pRY011XHpByFF6dEJocO5NKEQQXPoyDZt2Lhar6qrfqr0xnFcKHfL3j56mxO/OQPxY5h7ep2vYyYe/mwFj6uq4VNBE8S0ikROgqfVIFV54cII0VPiZkj8WwTzKSRVevK9rhd7oPk4z/vq4JqgDS/q6qOS8fxgnjHQfz+fvivhIt3foYH1x9J/uGit9l/7wTfz8lRuz6PfHjAdRWF287nk3h39cHXzaOyFmTUgfwe0D/wlvJ5itPz4f7b1wy+bingNv1HMDT+GzRP0fpusPjmp5u/+T1x4DxwFJiAilZDP/iPL+lLOgVQiRGFjJaZiGDActveAuJXQiZ+qbLSouO0TUHZLHte1Rg6US0lfq4F51VbPdez5rTYcT9cwVN+ihqlTeLo5/7JH7Xwn/Jrl8esXJdCvxvwnSZ/useoBY8UrupadIyTfNqvU+h4YfopNkRbdXphmid0TM4LXz4+V9UtWETUGK/G87Hqy+Etbl5ZaMExDy03VT2m1afC3KZej6LHHfD2h/vCPcwdgxy2chmnUnwC7yUIPq8vPp932AxwoRQj3EyewhWLrqLrFjJQnsF2y9uETh8s72AyVchQv+TfgjPExk4viB6+7bluniF+YCgGW63/DwyJJ1R+cjc1j9D1+13/Kp6frlr4T7m08kT+KEISCohyBWzOKqyFKSTVVCV+tARFgDi1OvPTWtOWWr6qyrY6JYjKetOCpquugwtdrirrxnF/2FGhXMYzTtzc/vIPj9cNexT6fQHfKfNHe4xM8LhbRRsZ6MZWjuRjmH6KhHKV3xcvfzyBEa1R/rwIsv3OdWlxKVen5QTNdXk6tF8svZTOy3gOV1FCR1ciqWtpVm/Fzar1taWn1/f8xFK/k99/va/qGFVInwQV5x5nQZxylZPDi89TdCLHTPH2B4dHMTCF8QV76Cbl4/J5C49k4G0P/psDMVju/udM59PxuXX6Z1P48xYzmEgOzEjyDofCoy24gQXvpvfIiQBdic7n18LgpTGaIa/xX6drseGHtniWlV9ZZhQyLX60ALVwufEqjR0Pkq7a50TwuH1ZX03lpPJqV4mlcvNCp1w3Tgtf3i//ffuqXabzBsrF8486TnUQikK/Gyg4je75KWLkgufh/UYuXQ7f9WuXp0MLhorjIgGGtV8LnArLn7zQeX5XBOWPX+gYR9cTQU/4JCh+3bvLvF48rTrGUfhUfq6n4hn2fssVOLW/Ok7tM+PEy5DfTxjmWVfuAMfO/15cIflzOHB6qen/G76r6CYPth/6BumPL963qo4r3Fbh+oP9jp/+v5hfK5+m4tygTi9ej+VvKCS/b5WB8xZvs/QMdFNq3KNiem7n8jexdnkdXFfC/jh61eLm1Yv2qzcXJJ66kmtbExFjump3U4KnLTz6lcCJn9YZ18uLm/hdwaOf6X4/Xa6vRU9vV4kcf1vl037+yYsfg/l9zR2z3Cs6nI/P+QsuXj7g5fczZsEjOo+O8PIrV36QrpdMVy8UGZ+YiMDQzQsQXTcsCZ5oKb8rdH7R8wue8ntx/A35Ybbh0a/z+bbJ31SWnf4t+Z9z5b/az8H8PCBunaig33XjiRc3FHp7Pvpfp4EZxrYHYmgpkLQBkgdbx73q6q+f/oeQzzPQ4RVuYfATULyVgX45F9dvM0Ntd/C0fowg64DIDg50MxZTcGPnftR/46tgLh9devOCQb9Op0uRYRzFRQsMLTyx4iTNEz6KkhIuJWoUOCcnXlrMfFVWZREyLi9wOdfbnvj1dgv94s25/JMLS7qKE8SrwurY3Fgv7KHC+aBQlFbEaQWPFGbxbcT15tPl9Lh+5coP5sP5XaHo6LDryh+6WuA8v87nCZcK0xVxGkj0vHi/4OXy5QTT247eH1WNVdvknujf46nVrt4PtUiat4+eP3esPN8MDhCv47Q7GHqd8SN/9U67Y65H47vqQv91C9M9dL6B04YLb7mBGWwPVXwuOJxf13kG+51yM9CN6ZFLkp3L3fxupBssiKePwUK/FprBXCVs4mpBcuN8gqWqtuJ6gqdcJYw6vUDschZdfn0tdnodCSq//FcuIxin9rfIT+hnWVSuCitH4cUVXjgdyKUVMSzB8yjM6v9lf5pP5NSPe2Ht0qdc8aiFYREmunmx0yJEYcq5jHNd3banw54gKlcWT/DycT6/t44SQO0Xx/Xnf9vvqoX/cn6Ndwz62HXYI+d10wbDv06egS9UMTrXEBsfNkNtoyhNgv33rjDP8PZ+7OhfLfw1FZeLGs6ejHZvB/jdYTF0zoFu0oIbXP1u/5vfy8Iw8yhX/jCefr/AFLvayhJLT/y56q0rYEzzRE3Ha78nbH5RG1Ds3DAX+a/y5aw6wW/RMT3v51/3OOUe0eF8vIcX7z+tXtRglEbwBIqChz+bjnfFzo2n44VVlPxhjynDfsHxxKpQ9Fy/z9JjnCdu/eP863I9X7jIL17ll//azziG1f7qOH0O8sejwnIqVLRLzt8v3hcYlIGvmH/d4jNfOoaxLdmPgfewEN5EpWI4v6h+7XSlXTGcPEMx8Pr+o83diP04/Tnpv67vhle/7RcA5eT2iGHmUa7r9wSG4bzweK4WHU+U8mGdR4uaK34SLha8fFzhuv50Cep0SVBVaMYxkvGSiV6GeUxudC7M0+Xl1cesz593/Dl8p7U4qZiSCR6D/nR/Vnq9NDrKL3vm+SkyzCT/XeHxBEhXL7VYMc4VJ8mow9qfs96KBc9nCWpX58nFyR9x3O3oRf67v5sfKK3j6Or8yqVH+XVYH7+OIzl/7rwMfCV02vAZeCujZWS/rfLL/+Htw8DbHmrdwffm9L+o1lXZRnqGRpp/cAbf/9PT7yaWreXieM5drxeXC2tHhSkZypU/jNdxWoi8sCc4ntB56RQqT5hyfnHZlueFCyy6XPwA6/ksO++3/S6RJHef9P7osOeXP75jJvq4fefEo+CkD5BeRNkEjxFeWLmyIzrsWkduPKP8flIsRIz3BCkvWH6/6xYJXj7s5vG26/r98fTLfzfd9TPNtTwZT5fosM7jD2sKj9t/Abz4gRgiaRSUdGOCu70hNtu/mJVyHwYvxP1+JZd18HVGRym3N/SNmUtTB6fz0uvFK0civGx0tZzovPQxTouMFhGKj86n470w9adAmBhW6T7rriDMvO46TCsIF/vdbbquf7yddvU+5PeZf+UY+I9eFy8+7xf6Xfii9EEoqeCR4jxeWDmSh2EvCx0v7PnpoX8w0fNcv1Apv7gFFp1K8/LK4hdKX1iy6LyyKD/jHBYwN04iGa9dN8w/PDY3TNyofJq4PCU67CExuTyDwbVGw1DbHIBhZx/+dgfe8xHuVwFDn4vTb3mY53JEp3y014cMvsfqRi1KLr7pWd60NOTTlCvr0WUe5fKfcn1i4w+LxxMkul68/HfFygv7/TrNX11Vi8/PPVR53XX1dvXv6n3Tv50Pu64b5oF4YQ8dT3RajoJzlQ8U5BmAEQke6XcDexT9jpfPn135JR/T6Fd5ZAdzYZVHe+jPiZDP1YKkhUmCubgh/XRVOO8Xrw6r+Pw26ao0N4/aN+W6C/8pP2OLRS8fx9PhhT102EVF67SC+HJT8FNj/d3C9fNHOj7oXx/rr/rWH8cDGPjmLbqpBX+QUsCsXpxyJYIu11Mu/ynXi6cgsRc2H6eFSguLJ2Z5vw578V7eXHwuXJRfXPmfSxdvzmV8fv98froSJl7YOx4d56W6V9oL586XR1H6EIxY8EjhKkU/4u2TL48/O/0UhJyff2RH6eo0N07+DyRAfleJl8qjBw6rRcX70/V2vLD8z8d5YYkQx5euXbWo3xJzUO2jF+elM1XvO8+1Cgr++MLz0f+C6PjJzgj2ccCsOrL/0fcnv/oAuYezgRwjyjwhDHaDFkd7wVx+5fKh6roSZhTDOomWVn+R88JKiLw4N6yFi2Ll5nH92vXSC8NeJ4T259O8bdJlfPH+5eIknXjpvPjKdeM0btlheMCyRfo/KAZjVIJHClfz/ZjP68/jz06/lhjXzz+yw3R1mhvn+nOCJMKTD3vj5XS4QMDUkhe5ftVXxklA5/XWKXSZuyDsiyN09PHxQvjj3Tj6vXT6VXwenebhO2llp3A/SkbBZsvxG75zVLbTNTHXod/N6ib5o3Ue98Zmuji5OP5z89L1wp4QMR+T/SLUX6Rc8fLEjGHXn4/3rafWKVrfi1Ou/JOA+m26ubCO4w2j08SfOwbXr1xSdI4GKVa57MNg1IJHBr1pXW9xuhfWLk+RF3bjZM/pqrCXz/VrcdNp/UXKS9euivf5KXgqrPxuulovn4/hnN/nqv1RrruokH8/9cVS++rmU66bz8NL99DhIa7UCC6i+qmyUdaNl5mRnMRhMNrNneYUDnbDegKQ9+d3IS8K+fXpauHQ+ZiHfk+kGOeJkorvJ1o6TuVXfjeNYebP5cuLoRfvd5mD6cQLK1ct8kfKvrdvKo/8U64X9jz+Yx/0HPoF8vSMSfBI4ereHmuH5NN1pBfW7vBEz/NThOhTYVkKhMt1c4KV8/ssQX/6IK63ncJ94JJPL95PHpk/jmg3fz4Kwi5e3qnBVNrXwvM8mel/s+rz7ImAJn9Ta1c/ZHVEYRy9DDHO7/cEzYvzwgO5Srhyfr2OEjvGu36/W+BX64lSCjqcz6P2U8q83jfmdI9LDlkF1Tquh5EuXp7+uOcqt87pGbPgkcJNyI/7fr9fmuDFafc0okfXS1OuL96N02I1kJi56ZKxv6D53Fya5HPjdFjH9ffzr95venlUKkq5OsILEy+/YtBzM4WZiMPwncepTMHNmjuPeYEj2q8TvZvfS1aOm840egtExvO72XIdGMqv0wZ0JX9eBPX6/cUxP3DYi/P2mw5jlKsW+SPlXe8j84hfraHTPbw0D297viiXAfIMg5IIHinYTNEO5NN0vD+v9o9E9HQcI7y4wrY9N47reG5xWk4Q6co/L5+4uXh3PRVHj+y69nvxOlK7mrzfjVeHW5jHT2H8IBdtkOgRMfDPD5MxrTzBjOHkleK8F1NwKnVgsJvVf+Mrv/Lmw14y/SyRXhxFRLkFfvq8OO1qcdPxBUKWS9N5i8VQxRXlZ0i5jPT89IlHxzOHRudRubTrJQjM5x0j0WGXfLQwSJ5hUDLBI/lNyU7493WAG9sfp/36wumwclSIaQwr1xcmhfF+0RrYomO4UPh8b1N4acqfz5//fR2v9pNx4iOM13+YrmG6xnesA1wXnW+AhEmJd0xTgalyTmVPi25yBYtLwY3st/hcv8ojQTeeDkXEy+YlMa/f7xcu7brVXTeuQMyYx/NzPXed3Da4qDgdZqg4jmvpNB3Xb/9dvDQPHXYpOD2D5BkmJRU8UnAT+/e54Gd0gj/OW8+TEi+J8fTm012//q/TXX/x62B+ASwMe+nuWxS+OG4vl4+uxKvfdf3qt3Nh7VeZ3TgddOMF7ffIn5DCeB/5LJOHQXZ1UjMZz6Mf3zktvHHzCf54vx7kot1ILSquX1z6GMz7tej0j2dcoeDR1YKm8+SEL5fu5vfiVLxOZBrvhfzvaZeoNHdfdVg5Ci/NQ4ddCsreIHlGQMkFjwxyjw/r5ldeSWKcF6382qviVIj/1aLT8q678J+4fovOi2NYx7thN877TR32/PTpOKL9OqAcHoaXVhzv+Yvw8hXiO1GTioH2daowdc7pQDdwLkqy+0WBfuWTckS/l6b8broOi5//6ObSivxuel7E8ml5a9B1vUX+eSKpdkTFM5YU7gcXFeemEhXl4qV76LBLPloYJM8IKZPguWfBw38MBT+XT/Dic+vKf/q9sHLlQHVc//x5gZLFjff781Yb4wrThvTTlTDxwv79UPAwXL9KV7j7rL2KXNIoyG/XMNkZ0w3pX1UueX5b+vozTJ8Xq9O1yKiwinPjpczQVWH+U/HD8Ms2tKAxxk0bxK//aEFTXkZxcQN0dG6Nl4foPPly7a2jKCjug+QZBWUUPOI/OtcVCn8yn+CPV15J8uLoKL8cMF03WiXQ66V7fr1uYdzI/OK6YW6MscrLNC5uwIsjek29f95R+dMHw/sNRf50TB6GcxCTjTHeGOVFzqd7Sge7gVWJ8CXl8rFs+RLoVWFZIeeXAF0vl4rnP5Xu9+s8w/H7t6lc5eF/nerlze+fl1+ne2EPL4+HP80XLQySZ5SUWfCIbyf9xzRIHn+88stBenFeEl0tLm6c/HGTcmm5vCpOh/1pA/m5Hyqvbx3ixWm/DhfuF119DN52dECn5/GdAMFb32Agngj4S0X+JhfB8JUfv2AoWXGT6HppXn4V5+Zhmo71BMmNU3l8fhVmzAD5+MclF5ay7MV7yd76yl+wTj6e+NN80cIgecZAWQSPFG7Wt7P+Yxskjz9e+eVgvTgvSYclnv+YhXH+eHHzYS9Nh5XrrqfS1fbzadxYLp8bwfy57RbE5fPk/MrrHo9KGwq9TUOlkhcK4i8JhUJQmM+fVCBMKsHN665Db2GeojC34cX3S8vHE+Uw3gvT49u3fD568vEeOpw/yoL0gttgkDxjpGyCRwo37dvpov0fKJ8/TvnloPNxeb9yZBWGvWQ6DPOkq3g37E9jUMdp4cqF3d9RSSqvF6/9Oo4evZ6Hl0Z0ukdhvoHpf8zTj5EcW1EBmUb0v3kHPy+5vCpLoXj4N6Pipex46V6aJ1bKL+5AYW+7g6arCH0vFaT54r047YpnwP31/Pnj9af7ooVB8pSAsgoeKb75cwxyHP78xXvmBfN5tDgRf5p/PZ3uipjKlRc0lSb7obIIKq4oj44vzpfPw3h/XN7vw71o/eIHYbj5DFOHEd+4LFo+kShe3x9UaSq/L8x1VHnU6+o8nl9lU65/Xf96XpglkbFEJbuu3rY/zvW4v+Hh96sfcimIz0cLg+QpCcD/D3GJfaDOvwHNAAAAAElFTkSuQmCC;" parent="fCbOtdPG3xvEK2G1sM7g-8" vertex="1">
          <mxGeometry x="32.519999999999996" y="19" width="36.96" height="40" as="geometry" />
        </mxCell>
        <mxCell id="fCbOtdPG3xvEK2G1sM7g-7" value="&lt;div&gt;PulseGo&lt;/div&gt;" style="text;html=1;align=center;verticalAlign=middle;whiteSpace=wrap;rounded=0;fontStyle=1" parent="fCbOtdPG3xvEK2G1sM7g-8" vertex="1">
          <mxGeometry x="1" y="54" width="100" height="30" as="geometry" />
        </mxCell>
        <mxCell id="fCbOtdPG3xvEK2G1sM7g-10" value="" style="endArrow=classic;html=1;rounded=0;entryX=0;entryY=0.5;entryDx=0;entryDy=0;entryPerimeter=0;exitX=1.036;exitY=0.47;exitDx=0;exitDy=0;exitPerimeter=0;" parent="1" target="fCbOtdPG3xvEK2G1sM7g-9" edge="1">
          <mxGeometry width="50" height="50" relative="1" as="geometry">
            <mxPoint x="120.01600000000008" y="320" as="sourcePoint" />
            <mxPoint x="280" y="319" as="targetPoint" />
          </mxGeometry>
        </mxCell>
        <mxCell id="fCbOtdPG3xvEK2G1sM7g-12" value="" style="group" parent="1" vertex="1" connectable="0">
          <mxGeometry x="310" y="210" width="80" height="120" as="geometry" />
        </mxCell>
        <mxCell id="fCbOtdPG3xvEK2G1sM7g-9" value="&lt;b&gt;1. Location DB&lt;/b&gt;&lt;div&gt;&lt;b&gt;2. Device Health&lt;/b&gt;&lt;/div&gt;" style="shape=cylinder3;whiteSpace=wrap;html=1;boundedLbl=1;backgroundOutline=1;size=15;" parent="fCbOtdPG3xvEK2G1sM7g-12" vertex="1">
          <mxGeometry x="-30" width="100" height="90" as="geometry" />
        </mxCell>
        <mxCell id="fCbOtdPG3xvEK2G1sM7g-11" value="&lt;div&gt;PostgreSQL&lt;/div&gt;&lt;div&gt;(Primary)&lt;/div&gt;" style="text;html=1;align=center;verticalAlign=middle;whiteSpace=wrap;rounded=0;fontStyle=1" parent="fCbOtdPG3xvEK2G1sM7g-12" vertex="1">
          <mxGeometry x="70" y="30" width="80" height="30" as="geometry" />
        </mxCell>
        <mxCell id="fCbOtdPG3xvEK2G1sM7g-17" value="Confluent&lt;div&gt;Kafka&lt;/div&gt;" style="rounded=0;whiteSpace=wrap;html=1;fillColor=#dae8fc;strokeColor=#6c8ebf;" parent="1" vertex="1">
          <mxGeometry x="550" y="287" width="120" height="60" as="geometry" />
        </mxCell>
        <mxCell id="fCbOtdPG3xvEK2G1sM7g-26" value="" style="group" parent="1" vertex="1" connectable="0">
          <mxGeometry x="647" y="302" width="100" height="30" as="geometry" />
        </mxCell>
        <mxCell id="fCbOtdPG3xvEK2G1sM7g-20" value="" style="rounded=0;whiteSpace=wrap;html=1;container=0;" parent="fCbOtdPG3xvEK2G1sM7g-26" vertex="1">
          <mxGeometry y="5" width="100" height="20" as="geometry" />
        </mxCell>
        <mxCell id="fCbOtdPG3xvEK2G1sM7g-21" value="CountryTopic" style="text;html=1;align=center;verticalAlign=middle;whiteSpace=wrap;rounded=0;container=0;" parent="fCbOtdPG3xvEK2G1sM7g-26" vertex="1">
          <mxGeometry x="45" width="5" height="30" as="geometry" />
        </mxCell>
        <mxCell id="fCbOtdPG3xvEK2G1sM7g-27" value="" style="endArrow=classic;html=1;rounded=0;entryX=0;entryY=0.5;entryDx=0;entryDy=0;" parent="1" target="fCbOtdPG3xvEK2G1sM7g-17" edge="1">
          <mxGeometry width="50" height="50" relative="1" as="geometry">
            <mxPoint x="380" y="320" as="sourcePoint" />
            <mxPoint x="439" y="317" as="targetPoint" />
          </mxGeometry>
        </mxCell>
        <mxCell id="fCbOtdPG3xvEK2G1sM7g-30" value="Location Updates: 10 sec&lt;div&gt;ETA Updates: 30 sec&lt;/div&gt;" style="text;html=1;align=center;verticalAlign=middle;whiteSpace=wrap;rounded=0;" parent="1" vertex="1">
          <mxGeometry x="110" y="240" width="156" height="30" as="geometry" />
        </mxCell>
        <mxCell id="fCbOtdPG3xvEK2G1sM7g-31" value="Location Updates: 20 sec&lt;div&gt;ETA Updates: 1 min&lt;/div&gt;" style="text;html=1;align=center;verticalAlign=middle;whiteSpace=wrap;rounded=0;" parent="1" vertex="1">
          <mxGeometry x="389" y="304" width="160" height="30" as="geometry" />
        </mxCell>
        <mxCell id="fCbOtdPG3xvEK2G1sM7g-33" value="Americana Last Mile Platform (ALMP)" style="text;html=1;align=center;verticalAlign=middle;whiteSpace=wrap;rounded=0;fontStyle=1" parent="1" vertex="1">
          <mxGeometry x="3" y="200" width="240" height="30" as="geometry" />
        </mxCell>
        <mxCell id="fCbOtdPG3xvEK2G1sM7g-39" value="Country + Brand + Channel&lt;div&gt;(New)&lt;/div&gt;" style="rounded=0;whiteSpace=wrap;html=1;" parent="1" vertex="1">
          <mxGeometry x="525" y="460" width="170" height="30" as="geometry" />
        </mxCell>
        <mxCell id="fCbOtdPG3xvEK2G1sM7g-40" value="" style="endArrow=classic;html=1;rounded=0;" parent="1" target="fCbOtdPG3xvEK2G1sM7g-39" edge="1">
          <mxGeometry width="50" height="50" relative="1" as="geometry">
            <mxPoint x="610" y="347" as="sourcePoint" />
            <mxPoint x="660" y="297" as="targetPoint" />
          </mxGeometry>
        </mxCell>
        <mxCell id="ZLUXNlqf3BNDjF-7Onv6-1" value="" style="group" parent="1" vertex="1" connectable="0">
          <mxGeometry x="942" y="279" width="420" height="94" as="geometry" />
        </mxCell>
        <mxCell id="fCbOtdPG3xvEK2G1sM7g-34" value="MuleSoft&lt;div&gt;(iPaaS)&lt;/div&gt;" style="rounded=0;whiteSpace=wrap;html=1;" parent="ZLUXNlqf3BNDjF-7Onv6-1" vertex="1">
          <mxGeometry x="90" y="2" width="120" height="60" as="geometry" />
        </mxCell>
        <mxCell id="fCbOtdPG3xvEK2G1sM7g-35" value="Aggregators" style="rounded=0;whiteSpace=wrap;html=1;" parent="ZLUXNlqf3BNDjF-7Onv6-1" vertex="1">
          <mxGeometry x="300" width="120" height="60" as="geometry" />
        </mxCell>
        <mxCell id="fCbOtdPG3xvEK2G1sM7g-36" value="" style="endArrow=classic;html=1;rounded=0;entryX=-0.003;entryY=0.662;entryDx=0;entryDy=0;entryPerimeter=0;" parent="ZLUXNlqf3BNDjF-7Onv6-1" target="fCbOtdPG3xvEK2G1sM7g-34" edge="1">
          <mxGeometry width="50" height="50" relative="1" as="geometry">
            <mxPoint y="41" as="sourcePoint" />
            <mxPoint x="50" y="-9" as="targetPoint" />
          </mxGeometry>
        </mxCell>
        <mxCell id="fCbOtdPG3xvEK2G1sM7g-37" value="" style="endArrow=classic;html=1;rounded=0;entryX=-0.003;entryY=0.662;entryDx=0;entryDy=0;entryPerimeter=0;" parent="ZLUXNlqf3BNDjF-7Onv6-1" edge="1">
          <mxGeometry width="50" height="50" relative="1" as="geometry">
            <mxPoint x="210" y="30.689999999999998" as="sourcePoint" />
            <mxPoint x="300" y="30.689999999999998" as="targetPoint" />
          </mxGeometry>
        </mxCell>
        <mxCell id="fCbOtdPG3xvEK2G1sM7g-38" value="Country + Brand" style="text;html=1;align=center;verticalAlign=middle;whiteSpace=wrap;rounded=0;" parent="ZLUXNlqf3BNDjF-7Onv6-1" vertex="1">
          <mxGeometry x="103" y="59" width="90" height="30" as="geometry" />
        </mxCell>
        <mxCell id="fCbOtdPG3xvEK2G1sM7g-41" value="UAE + Noon&lt;div&gt;Qatar + Snoonu&lt;/div&gt;" style="text;html=1;align=center;verticalAlign=middle;whiteSpace=wrap;rounded=0;" parent="ZLUXNlqf3BNDjF-7Onv6-1" vertex="1">
          <mxGeometry x="316" y="64" width="90" height="30" as="geometry" />
        </mxCell>
        <mxCell id="ZLUXNlqf3BNDjF-7Onv6-2" value="" style="group" parent="1" vertex="1" connectable="0">
          <mxGeometry x="320" y="368" width="80" height="120" as="geometry" />
        </mxCell>
        <mxCell id="ZLUXNlqf3BNDjF-7Onv6-3" value="&lt;b&gt;1. Location DB&lt;/b&gt;&lt;div&gt;&lt;b&gt;2. Device Health&lt;/b&gt;&lt;/div&gt;" style="shape=cylinder3;whiteSpace=wrap;html=1;boundedLbl=1;backgroundOutline=1;size=15;" parent="ZLUXNlqf3BNDjF-7Onv6-2" vertex="1">
          <mxGeometry x="-30" width="100" height="90" as="geometry" />
        </mxCell>
        <mxCell id="ZLUXNlqf3BNDjF-7Onv6-4" value="&lt;div&gt;PostgreSQL&lt;/div&gt;&lt;div&gt;(Replica)&lt;/div&gt;" style="text;html=1;align=center;verticalAlign=middle;whiteSpace=wrap;rounded=0;fontStyle=1" parent="ZLUXNlqf3BNDjF-7Onv6-2" vertex="1">
          <mxGeometry x="-19" y="91" width="80" height="30" as="geometry" />
        </mxCell>
        <mxCell id="ZLUXNlqf3BNDjF-7Onv6-5" value="" style="endArrow=classic;html=1;rounded=0;exitX=0.547;exitY=0.987;exitDx=0;exitDy=0;exitPerimeter=0;entryX=0.447;entryY=0.019;entryDx=0;entryDy=0;entryPerimeter=0;" parent="1" source="fCbOtdPG3xvEK2G1sM7g-9" target="ZLUXNlqf3BNDjF-7Onv6-3" edge="1">
          <mxGeometry width="50" height="50" relative="1" as="geometry">
            <mxPoint x="370" y="320" as="sourcePoint" />
            <mxPoint x="430" y="360" as="targetPoint" />
          </mxGeometry>
        </mxCell>
      </root>
    </mxGraphModel>
  </diagram>
</mxfile>
